<svg width="583" height="555" viewBox="0 0 583 555" fill="none" xmlns="http://www.w3.org/2000/svg">
<g filter="url(#filter0_d_1_722)">
<rect x="183" y="200.498" width="274.996" height="197.82" rx="20" transform="rotate(-30 183 200.498)" fill="white"/>
<rect x="183.683" y="200.681" width="273.996" height="196.82" rx="19.5" transform="rotate(-30 183.683 200.681)" stroke="#F1ECFF"/>
</g>
<path d="M275.753 303.888C285.923 298.016 277.306 283.091 287.577 277.161C297.747 271.29 294.457 265.59 304.728 259.66C314.898 253.789 302.805 232.844 313.077 226.914C323.246 221.042 329.396 231.693 339.667 225.763C349.837 219.891 361.23 239.625 371.4 233.753C381.671 227.823 364.231 197.617 374.401 191.745C384.673 185.815 403.86 219.049 414.03 213.178C424.301 207.247 422.06 203.365 432.229 197.493C442.501 191.563 449.452 203.603 459.622 197.731" stroke="#7DF951" stroke-width="2"/>
<path d="M275.753 303.888C285.923 298.016 279.519 286.925 289.791 280.995C299.96 275.123 305.571 284.841 315.843 278.911C326.012 273.04 324.122 269.765 334.393 263.835C344.563 257.963 336.838 244.583 347.109 238.653C357.279 232.781 348.354 217.323 358.524 211.452C368.795 205.522 380.769 226.261 390.939 220.39C401.211 214.46 397.002 207.171 407.172 201.299C417.443 195.369 421.082 201.672 431.252 195.801C441.524 189.87 449.452 203.603 459.622 197.731" stroke="#F25368" stroke-width="2"/>
<path d="M278.718 302.176C279.204 303.018 278.916 303.987 278.228 304.383C277.541 304.78 276.558 304.545 276.072 303.704C275.586 302.862 275.874 301.894 276.562 301.497C277.249 301.1 278.232 301.335 278.718 302.176Z" fill="white" stroke="#81F731" stroke-width="2"/>
<circle cx="288.869" cy="276.109" r="1.5" transform="rotate(-30 288.869 276.109)" fill="white" stroke="#81F731" stroke-width="2"/>
<circle cx="306.33" cy="258.329" r="1.5" transform="rotate(-30 306.33 258.329)" fill="white" stroke="#81F731" stroke-width="2"/>
<circle cx="314.577" cy="225.855" r="1.5" transform="rotate(-30 314.577 225.855)" fill="white" stroke="#81F731" stroke-width="2"/>
<circle cx="341.372" cy="224.241" r="1.5" transform="rotate(-30 341.372 224.241)" fill="white" stroke="#81F731" stroke-width="2"/>
<path d="M374.383 231.548C374.869 232.39 374.581 233.358 373.893 233.755C373.206 234.152 372.223 233.917 371.737 233.076C371.251 232.234 371.539 231.265 372.227 230.868C372.914 230.472 373.897 230.707 374.383 231.548Z" fill="white" stroke="#81F731" stroke-width="2"/>
<circle cx="375.867" cy="190.469" r="1.5" transform="rotate(-30 375.867 190.469)" fill="white" stroke="#81F731" stroke-width="2"/>
<circle cx="415.662" cy="211.372" r="1.5" transform="rotate(-30 415.662 211.372)" fill="white" stroke="#81F731" stroke-width="2"/>
<path d="M435.339 195.585C435.825 196.427 435.537 197.396 434.849 197.792C434.162 198.189 433.179 197.954 432.693 197.113C432.207 196.271 432.495 195.303 433.183 194.906C433.87 194.509 434.853 194.744 435.339 195.585Z" fill="white" stroke="#81F731" stroke-width="2"/>
<path d="M463.134 195.704C463.619 196.545 463.331 197.514 462.644 197.911C461.957 198.308 460.974 198.073 460.488 197.231C460.002 196.39 460.29 195.421 460.977 195.024C461.665 194.627 462.648 194.862 463.134 195.704Z" fill="white" stroke="#7951F9" stroke-width="2"/>
<circle cx="277.288" cy="302.809" r="1.5" transform="rotate(-30 277.288 302.809)" fill="white" stroke="#F25368" stroke-width="2"/>
<circle cx="290.869" cy="279.573" r="1.5" transform="rotate(-30 290.869 279.573)" fill="white" stroke="#F25368" stroke-width="2"/>
<circle cx="317.33" cy="277.382" r="1.5" transform="rotate(-30 317.33 277.382)" fill="white" stroke="#F25368" stroke-width="2"/>
<circle cx="335.577" cy="262.228" r="1.5" transform="rotate(-30 335.577 262.228)" fill="white" stroke="#F25368" stroke-width="2"/>
<circle cx="348.705" cy="236.943" r="1.5" transform="rotate(-30 348.705 236.943)" fill="white" stroke="#F25368" stroke-width="2"/>
<circle cx="359.953" cy="209.665" r="1.5" transform="rotate(-30 359.953 209.665)" fill="white" stroke="#F25368" stroke-width="2"/>
<circle cx="392.2" cy="218.759" r="1.5" transform="rotate(-30 392.2 218.759)" fill="white" stroke="#F25368" stroke-width="2"/>
<circle cx="408.995" cy="199.825" r="1.5" transform="rotate(-30 408.995 199.825)" fill="white" stroke="#F25368" stroke-width="2"/>
<circle cx="432.909" cy="194.486" r="1.5" transform="rotate(-30 432.909 194.486)" fill="white" stroke="#F25368" stroke-width="2"/>
<circle cx="461.704" cy="196.337" r="1.5" transform="rotate(-30 461.704 196.337)" fill="white" stroke="#F25368" stroke-width="2"/>
<g filter="url(#filter1_d_1_722)">
<path d="M257.945 262.307C256.84 260.393 257.496 257.947 259.409 256.843L287.122 240.843C289.035 239.738 291.481 240.393 292.586 242.307L299.386 254.085C300.49 255.998 299.835 258.444 297.922 259.549L289.014 264.692L286.765 272.225L279.117 270.406L270.209 275.549C268.296 276.653 265.849 275.998 264.745 274.085L257.945 262.307Z" fill="#F7F4FD"/>
<path d="M288.764 264.259L288.592 264.358L288.535 264.549L286.421 271.629L279.232 269.919L279.039 269.873L278.867 269.973L269.959 275.116C268.285 276.082 266.144 275.509 265.178 273.835L258.378 262.057C257.411 260.383 257.985 258.242 259.659 257.276L287.372 241.276C289.046 240.309 291.186 240.883 292.153 242.557L298.953 254.335C299.919 256.009 299.346 258.149 297.672 259.116L288.764 264.259Z" stroke="#E8E0FF"/>
</g>
<path d="M275.494 262.035C275.661 262.323 275.745 262.636 275.747 262.974C275.756 263.308 275.671 263.641 275.494 263.975C275.323 264.304 275.059 264.595 274.704 264.846L275.109 265.548L274.546 265.873L274.141 265.171C273.568 265.433 273.031 265.516 272.53 265.42C272.028 265.325 271.641 265.041 271.367 264.567L272.424 263.957C272.571 264.172 272.752 264.318 272.965 264.395C273.176 264.466 273.411 264.453 273.671 264.357L272.571 262.452C272.128 262.577 271.756 262.661 271.457 262.703C271.155 262.739 270.853 262.697 270.554 262.578C270.259 262.455 270.002 262.203 269.782 261.822C269.506 261.343 269.445 260.851 269.6 260.345C269.751 259.835 270.083 259.396 270.596 259.031L270.191 258.33L270.754 258.005L271.159 258.706C271.694 258.459 272.194 258.386 272.66 258.486C273.129 258.577 273.521 258.851 273.838 259.307L272.782 259.917C272.661 259.748 272.5 259.629 272.299 259.561C272.094 259.486 271.876 259.482 271.644 259.546L272.724 261.417C273.164 261.286 273.535 261.202 273.838 261.166C274.137 261.124 274.434 261.165 274.728 261.288C275.019 261.405 275.274 261.654 275.494 262.035ZM270.757 261.19C270.894 261.427 271.07 261.571 271.285 261.624C271.506 261.674 271.77 261.664 272.076 261.595L271.066 259.845C270.834 260.017 270.687 260.222 270.624 260.459C270.566 260.692 270.61 260.936 270.757 261.19ZM274.234 264.032C274.465 263.845 274.606 263.629 274.657 263.384C274.704 263.133 274.661 262.892 274.528 262.662C274.395 262.431 274.219 262.293 274.002 262.25C273.786 262.197 273.525 262.205 273.219 262.274L274.234 264.032ZM278.042 261.06C278.32 260.261 278.529 259.617 278.67 259.127C278.813 258.629 278.895 258.15 278.915 257.692C278.935 257.234 278.849 256.838 278.655 256.503C278.455 256.156 278.215 255.933 277.934 255.834C277.659 255.731 277.346 255.781 276.994 255.984C276.653 256.181 276.451 256.444 276.387 256.773C276.325 257.094 276.394 257.439 276.592 257.809L275.64 258.359C275.277 257.691 275.183 257.075 275.359 256.512C275.536 255.94 275.917 255.486 276.5 255.149C277.129 254.786 277.72 254.676 278.272 254.819C278.83 254.959 279.276 255.317 279.609 255.894C279.849 256.31 279.974 256.773 279.984 257.283C279.996 257.784 279.943 258.273 279.825 258.749C279.71 259.216 279.542 259.778 279.322 260.437L279.132 261.008L281.877 259.423L282.352 260.246L278.143 262.676L277.728 261.957L278.042 261.06ZM284.531 251.817L281.63 253.492L282.625 255.215C282.653 254.984 282.754 254.745 282.927 254.498C283.106 254.249 283.332 254.045 283.603 253.889C284.088 253.609 284.54 253.486 284.961 253.521C285.387 253.552 285.755 253.689 286.065 253.934C286.381 254.175 286.641 254.471 286.844 254.823C287.091 255.251 287.227 255.68 287.253 256.111C287.282 256.534 287.186 256.935 286.967 257.316C286.754 257.693 286.41 258.018 285.937 258.292C285.308 258.655 284.712 258.791 284.151 258.699C283.59 258.607 283.124 258.326 282.752 257.856L283.714 257.301C283.934 257.535 284.2 257.67 284.513 257.705C284.822 257.734 285.142 257.654 285.471 257.464C285.881 257.227 286.115 256.926 286.174 256.562C286.238 256.193 286.152 255.804 285.915 255.394C285.675 254.979 285.388 254.721 285.054 254.622C284.716 254.516 284.345 254.581 283.941 254.814C283.658 254.977 283.46 255.188 283.347 255.445C283.236 255.694 283.208 255.964 283.261 256.257L282.326 256.797L280.221 253.151L284.031 250.951L284.531 251.817Z" fill="#232D42"/>
<path d="M235.108 212.398C235.482 213.045 235.676 213.741 235.691 214.487C235.717 215.226 235.501 215.959 235.043 216.685C234.597 217.405 233.877 218.052 232.884 218.625L230.857 219.795L233.537 224.437L231.112 225.837L224.132 213.747L228.584 211.177C229.519 210.637 230.409 210.339 231.254 210.282C232.099 210.225 232.846 210.387 233.496 210.766C234.158 211.138 234.695 211.682 235.108 212.398ZM231.65 216.728C232.319 216.341 232.729 215.904 232.879 215.417C233.023 214.919 232.934 214.393 232.614 213.838C231.934 212.661 230.936 212.452 229.62 213.212L227.697 214.322L229.727 217.838L231.65 216.728ZM239.395 210.247C239.413 209.559 239.588 208.927 239.917 208.352C240.259 207.77 240.753 207.292 241.399 206.919L242.869 209.465L242.229 209.835C241.466 210.275 240.992 210.787 240.807 211.372C240.632 211.95 240.802 212.683 241.315 213.572L244.075 218.353L241.65 219.753L236.11 210.157L238.535 208.757L239.395 210.247ZM253.004 213.406C252.08 213.939 251.132 214.217 250.159 214.24C249.18 214.25 248.261 214.004 247.4 213.5C246.551 212.99 245.843 212.244 245.276 211.262C244.71 210.281 244.423 209.291 244.417 208.294C244.423 207.29 244.684 206.369 245.201 205.532C245.712 204.683 246.429 203.992 247.353 203.458C248.277 202.925 249.234 202.65 250.224 202.632C251.208 202.603 252.13 202.84 252.991 203.344C253.863 203.841 254.582 204.581 255.149 205.562C255.716 206.544 255.991 207.54 255.974 208.55C255.968 209.554 255.704 210.484 255.182 211.34C254.665 212.177 253.939 212.866 253.004 213.406ZM251.784 211.293C252.222 211.039 252.572 210.699 252.833 210.271C253.099 209.825 253.224 209.321 253.209 208.761C253.193 208.2 253.008 207.614 252.655 207.002C252.128 206.09 251.483 205.531 250.718 205.326C249.957 205.103 249.231 205.192 248.538 205.592C247.845 205.992 247.406 206.576 247.219 207.346C247.037 208.098 247.209 208.93 247.736 209.842C248.263 210.754 248.894 211.329 249.631 211.565C250.373 211.783 251.091 211.693 251.784 211.293ZM256.284 204.86C255.724 203.891 255.418 202.92 255.366 201.95C255.325 200.973 255.523 200.088 255.959 199.298C256.396 198.507 257.024 197.875 257.844 197.401C258.467 197.041 259.142 196.837 259.868 196.787C260.587 196.726 261.244 196.824 261.839 197.081L259.209 192.526L261.668 191.106L269.068 203.923L266.609 205.343L265.789 203.923C265.762 204.569 265.56 205.194 265.184 205.796C264.808 206.398 264.262 206.905 263.546 207.319C262.738 207.785 261.879 208.004 260.969 207.975C260.06 207.946 259.192 207.67 258.366 207.146C257.545 206.604 256.851 205.842 256.284 204.86ZM263.856 200.535C263.516 199.946 263.111 199.511 262.64 199.228C262.162 198.934 261.664 198.791 261.144 198.798C260.618 198.794 260.13 198.922 259.68 199.182C259.23 199.442 258.877 199.792 258.623 200.231C258.369 200.67 258.243 201.174 258.248 201.741C258.257 202.29 258.428 202.853 258.761 203.43C259.095 204.008 259.503 204.449 259.988 204.755C260.477 205.042 260.979 205.191 261.493 205.202C262.019 205.206 262.501 205.082 262.94 204.828C263.39 204.568 263.748 204.215 264.014 203.769C264.274 203.312 264.399 202.808 264.39 202.259C264.374 201.699 264.196 201.124 263.856 200.535ZM274.955 187.73L280.495 197.326L278.053 198.736L277.353 197.523C277.281 198.119 277.061 198.685 276.693 199.22C276.33 199.738 275.854 200.167 275.265 200.507C274.515 200.94 273.761 201.168 273.003 201.189C272.239 201.199 271.513 200.995 270.825 200.576C270.142 200.139 269.553 199.494 269.06 198.639L265.81 193.01L268.235 191.61L271.285 196.893C271.725 197.655 272.255 198.134 272.876 198.329C273.491 198.514 274.127 198.416 274.785 198.036C275.455 197.649 275.864 197.144 276.011 196.519C276.153 195.884 276.003 195.185 275.563 194.423L272.513 189.14L274.955 187.73ZM281.321 186.711L284.001 191.352C284.188 191.676 284.399 191.869 284.636 191.933C284.878 191.978 285.183 191.894 285.553 191.68L286.679 191.03L287.859 193.074L286.335 193.954C284.291 195.134 282.695 194.731 281.549 192.745L278.879 188.121L277.736 188.781L276.586 186.789L277.729 186.129L276.359 183.756L278.801 182.346L280.171 184.719L282.319 183.479L283.469 185.471L281.321 186.711ZM293.954 189.763C293.03 190.296 292.082 190.574 291.11 190.597C290.131 190.608 289.211 190.361 288.35 189.858C287.501 189.347 286.793 188.601 286.227 187.619C285.66 186.638 285.374 185.649 285.367 184.651C285.373 183.648 285.634 182.727 286.151 181.889C286.662 181.04 287.379 180.349 288.303 179.816C289.227 179.282 290.184 179.007 291.174 178.989C292.158 178.96 293.081 179.198 293.941 179.701C294.813 180.199 295.533 180.938 296.099 181.919C296.666 182.901 296.941 183.897 296.924 184.908C296.918 185.911 296.655 186.841 296.132 187.697C295.615 188.534 294.889 189.223 293.954 189.763ZM292.734 187.65C293.172 187.397 293.522 187.056 293.783 186.628C294.049 186.182 294.174 185.679 294.159 185.118C294.143 184.558 293.958 183.971 293.605 183.359C293.078 182.447 292.433 181.889 291.668 181.684C290.908 181.461 290.181 181.549 289.488 181.949C288.795 182.349 288.356 182.934 288.169 183.704C287.987 184.455 288.159 185.287 288.686 186.199C289.213 187.112 289.845 187.686 290.582 187.923C291.324 188.141 292.041 188.05 292.734 187.65ZM304.41 183.726C303.625 184.18 302.84 184.448 302.057 184.531C301.267 184.602 300.547 184.502 299.897 184.23C299.259 183.952 298.753 183.528 298.378 182.959L300.821 181.549C301.08 181.892 301.436 182.095 301.888 182.157C302.351 182.213 302.819 182.104 303.293 181.831C303.755 181.564 304.059 181.265 304.207 180.934C304.365 180.596 304.362 180.282 304.195 179.994C304.015 179.682 303.72 179.544 303.31 179.581C302.905 179.599 302.303 179.716 301.503 179.931C300.687 180.171 299.995 180.332 299.426 180.414C298.869 180.49 298.313 180.433 297.759 180.246C297.215 180.051 296.757 179.631 296.384 178.984C296.077 178.453 295.947 177.881 295.994 177.269C296.052 176.65 296.291 176.051 296.71 175.47C297.141 174.883 297.743 174.366 298.517 173.919C299.66 173.259 300.739 173.021 301.753 173.205C302.761 173.377 303.58 173.929 304.209 174.859L301.888 176.199C301.634 175.837 301.299 175.631 300.883 175.578C300.473 175.507 300.031 175.608 299.558 175.881C299.119 176.135 298.825 176.412 298.676 176.714C298.538 177.009 298.553 177.301 298.719 177.589C298.906 177.913 299.211 178.068 299.634 178.054C300.051 178.029 300.65 177.907 301.431 177.687C302.224 177.46 302.899 177.309 303.456 177.233C304.013 177.158 304.566 177.224 305.116 177.429C305.671 177.617 306.138 178.025 306.516 178.654C306.836 179.208 306.967 179.794 306.908 180.413C306.861 181.025 306.623 181.625 306.192 182.212C305.766 182.782 305.172 183.286 304.41 183.726Z" fill="#232D42"/>
<rect opacity="0.2" x="382.012" y="116.198" width="31" height="31" rx="3.5" transform="rotate(-30 382.012 116.198)" stroke="#232D42"/>
<path fill-rule="evenodd" clip-rule="evenodd" d="M396.323 121.985C395.771 121.028 396.098 119.805 397.055 119.253L403.983 115.253C404.94 114.7 406.163 115.028 406.715 115.985L410.715 122.913C411.268 123.869 410.94 125.093 409.983 125.645L403.055 129.645C402.098 130.197 400.875 129.869 400.323 128.913L396.323 121.985Z" stroke="#232D42" stroke-width="2" stroke-linecap="round" stroke-linejoin="round"/>
<path d="M402.162 114.765L403.495 117.074" stroke="#232D42" stroke-width="2" stroke-linecap="round" stroke-linejoin="round"/>
<path d="M397.543 117.431L398.876 119.741" stroke="#232D42" stroke-width="2" stroke-linecap="round" stroke-linejoin="round"/>
<path d="M397.323 123.717L407.715 117.717" stroke="#232D42" stroke-width="2" stroke-linecap="round" stroke-linejoin="round"/>
<path opacity="0.5" d="M377.026 285.966L380.511 292.002L379.723 292.457L376.238 286.421L377.026 285.966ZM380.797 286.375L382.412 289.173C382.545 289.404 382.689 289.54 382.844 289.581C382.995 289.617 383.192 289.565 383.435 289.425L384.015 289.09L384.4 289.757L383.69 290.167C383.251 290.42 382.864 290.509 382.528 290.434C382.192 290.358 381.89 290.089 381.624 289.628L380.009 286.83L379.394 287.185L379.019 286.536L379.634 286.181L378.944 284.986L379.732 284.531L380.422 285.726L381.66 285.011L382.035 285.66L380.797 286.375ZM388.556 283.951C388.643 284.101 388.726 284.264 388.805 284.442L385.012 286.632C385.311 287.083 385.682 287.358 386.124 287.457C386.568 287.547 386.998 287.471 387.414 287.231C387.754 287.035 387.992 286.793 388.127 286.508C388.265 286.213 388.303 285.906 388.242 285.587L389.091 285.097C389.227 285.626 389.188 286.145 388.974 286.654C388.756 287.157 388.365 287.572 387.799 287.898C387.348 288.158 386.886 288.291 386.411 288.295C385.943 288.296 385.5 288.171 385.085 287.918C384.666 287.659 384.315 287.285 384.032 286.794C383.749 286.303 383.598 285.816 383.581 285.333C383.564 284.851 383.675 284.409 383.914 284.01C384.155 283.601 384.507 283.263 384.969 282.997C385.419 282.737 385.874 282.605 386.334 282.601C386.794 282.597 387.216 282.715 387.601 282.955C387.988 283.186 388.306 283.518 388.556 283.951ZM387.647 284.256C387.474 283.956 387.259 283.737 387.003 283.6C386.744 283.458 386.467 283.398 386.173 283.422C385.881 283.436 385.596 283.523 385.319 283.683C384.921 283.913 384.653 284.237 384.517 284.654C384.387 285.068 384.431 285.512 384.651 285.986L387.647 284.256ZM394.335 277.577C394.705 277.364 395.079 277.252 395.457 277.241C395.833 277.225 396.193 277.321 396.537 277.53C396.881 277.74 397.179 278.064 397.433 278.502L399.048 281.3L398.268 281.75L396.718 279.065C396.445 278.592 396.118 278.299 395.738 278.188C395.361 278.067 394.973 278.121 394.574 278.351C394.164 278.588 393.915 278.909 393.826 279.315C393.733 279.715 393.83 280.163 394.117 280.659L395.627 283.275L394.848 283.725L393.298 281.04C393.024 280.567 392.698 280.274 392.317 280.163C391.94 280.042 391.552 280.096 391.154 280.326C390.744 280.563 390.494 280.884 390.405 281.29C390.312 281.69 390.41 282.138 390.696 282.634L392.206 285.25L391.418 285.705L388.678 280.959L389.466 280.504L389.861 281.188C389.874 280.85 389.972 280.539 390.155 280.257C390.344 279.97 390.597 279.736 390.914 279.552C391.313 279.322 391.717 279.208 392.126 279.211C392.535 279.213 392.915 279.344 393.265 279.604C393.205 279.192 393.274 278.806 393.473 278.444C393.673 278.083 393.96 277.794 394.335 277.577ZM403.167 273.61L403.738 275.359L404.933 274.669L405.333 275.361L403.991 276.136L404.619 278.083L403.865 278.518L403.238 276.571L401.419 277.621L402.047 279.568L401.293 280.003L400.666 278.056L399.306 278.841L398.906 278.149L400.413 277.279L399.842 275.53L398.5 276.305L398.1 275.612L399.589 274.752L398.961 272.805L399.715 272.37L400.343 274.317L402.161 273.267L401.534 271.32L402.287 270.885L402.915 272.832L404.118 272.137L404.518 272.83L403.167 273.61ZM402.414 274.045L400.595 275.095L401.166 276.844L402.985 275.794L402.414 274.045ZM407.716 275.452C408.11 274.44 408.406 273.626 408.605 273.011C408.801 272.39 408.921 271.792 408.968 271.219C409.016 270.637 408.926 270.147 408.696 269.748C408.479 269.373 408.217 269.132 407.909 269.025C407.603 268.909 407.248 268.967 406.844 269.201C406.451 269.427 406.217 269.728 406.141 270.103C406.067 270.469 406.14 270.862 406.36 271.282L405.597 271.722C405.247 271.062 405.155 270.449 405.321 269.883C405.487 269.318 405.862 268.867 406.445 268.53C407.04 268.187 407.605 268.08 408.142 268.209C408.684 268.335 409.122 268.686 409.455 269.264C409.732 269.743 409.857 270.294 409.832 270.916C409.809 271.53 409.716 272.115 409.552 272.672C409.385 273.222 409.15 273.889 408.848 274.672L411.827 272.952L412.207 273.61L408.041 276.015L407.716 275.452Z" fill="#232D42"/>
<circle cx="365.263" cy="296.187" r="4" transform="rotate(-30 365.263 296.187)" fill="#F25368"/>
<path opacity="0.5" d="M310.342 324.466L313.827 330.502L313.039 330.957L309.554 324.921L310.342 324.466ZM314.113 324.875L315.728 327.673C315.861 327.904 316.005 328.04 316.16 328.081C316.311 328.117 316.508 328.065 316.751 327.925L317.331 327.59L317.716 328.257L317.006 328.667C316.567 328.92 316.18 329.009 315.844 328.934C315.508 328.858 315.206 328.589 314.94 328.128L313.325 325.33L312.71 325.685L312.335 325.036L312.95 324.681L312.26 323.486L313.048 323.031L313.738 324.226L314.976 323.511L315.351 324.16L314.113 324.875ZM321.872 322.451C321.959 322.601 322.042 322.764 322.121 322.942L318.328 325.132C318.627 325.583 318.998 325.858 319.44 325.957C319.884 326.047 320.314 325.971 320.73 325.731C321.07 325.535 321.308 325.293 321.444 325.008C321.581 324.713 321.619 324.406 321.558 324.087L322.407 323.597C322.543 324.126 322.504 324.645 322.29 325.154C322.072 325.657 321.681 326.072 321.115 326.398C320.664 326.658 320.202 326.791 319.727 326.795C319.259 326.796 318.816 326.671 318.401 326.418C317.982 326.159 317.631 325.785 317.348 325.294C317.065 324.803 316.914 324.316 316.897 323.833C316.88 323.351 316.991 322.909 317.23 322.51C317.471 322.101 317.823 321.763 318.285 321.497C318.735 321.237 319.19 321.105 319.65 321.101C320.11 321.097 320.532 321.215 320.917 321.455C321.304 321.686 321.622 322.018 321.872 322.451ZM320.963 322.756C320.79 322.456 320.575 322.237 320.319 322.1C320.06 321.958 319.783 321.898 319.489 321.922C319.197 321.936 318.912 322.023 318.635 322.183C318.237 322.413 317.969 322.737 317.833 323.154C317.703 323.568 317.747 324.012 317.967 324.486L320.963 322.756ZM327.651 316.077C328.021 315.864 328.395 315.752 328.773 315.741C329.149 315.725 329.509 315.821 329.853 316.03C330.197 316.24 330.495 316.564 330.749 317.002L332.364 319.8L331.584 320.25L330.034 317.565C329.761 317.092 329.434 316.799 329.054 316.688C328.677 316.567 328.289 316.621 327.89 316.851C327.48 317.088 327.231 317.409 327.142 317.815C327.049 318.215 327.146 318.663 327.433 319.159L328.943 321.775L328.164 322.225L326.614 319.54C326.34 319.067 326.014 318.774 325.633 318.663C325.256 318.542 324.868 318.596 324.47 318.826C324.06 319.063 323.81 319.384 323.721 319.79C323.628 320.19 323.726 320.638 324.012 321.134L325.522 323.75L324.734 324.205L321.994 319.459L322.782 319.004L323.177 319.688C323.19 319.35 323.288 319.039 323.471 318.757C323.66 318.47 323.913 318.236 324.23 318.052C324.629 317.822 325.033 317.708 325.442 317.711C325.851 317.713 326.231 317.844 326.581 318.104C326.521 317.692 326.59 317.306 326.789 316.944C326.989 316.583 327.276 316.294 327.651 316.077ZM336.483 312.11L337.054 313.859L338.249 313.169L338.649 313.861L337.307 314.636L337.935 316.583L337.181 317.018L336.554 315.071L334.735 316.121L335.363 318.068L334.609 318.503L333.982 316.556L332.622 317.341L332.222 316.649L333.729 315.779L333.158 314.03L331.816 314.805L331.416 314.112L332.905 313.252L332.277 311.305L333.031 310.87L333.659 312.817L335.477 311.767L334.85 309.82L335.603 309.385L336.231 311.332L337.434 310.637L337.834 311.33L336.483 312.11ZM335.73 312.545L333.911 313.595L334.482 315.344L336.301 314.294L335.73 312.545ZM338.085 309.107L337.67 308.388L339.298 307.448L342.913 313.709L342.116 314.169L338.916 308.627L338.085 309.107Z" fill="#232D42"/>
<circle cx="297.713" cy="335.187" r="4" transform="rotate(-30 297.713 335.187)" fill="#7951F9"/>
<defs>
<filter id="filter0_d_1_722" x="0.317169" y="0.3172" width="582.43" height="554.181" filterUnits="userSpaceOnUse" color-interpolation-filters="sRGB">
<feFlood flood-opacity="0" result="BackgroundImageFix"/>
<feColorMatrix in="SourceAlpha" type="matrix" values="0 0 0 0 0 0 0 0 0 0 0 0 0 0 0 0 0 0 127 0" result="hardAlpha"/>
<feOffset dx="-60" dy="60"/>
<feGaussianBlur stdDeviation="65"/>
<feColorMatrix type="matrix" values="0 0 0 0 0.62862 0 0 0 0 0.557604 0 0 0 0 0.841667 0 0 0 0.3 0"/>
<feBlend mode="normal" in2="BackgroundImageFix" result="effect1_dropShadow_1_722"/>
<feBlend mode="normal" in="SourceGraphic" in2="effect1_dropShadow_1_722" result="shape"/>
</filter>
<filter id="filter1_d_1_722" x="247.408" y="236.306" width="62.5141" height="55.7793" filterUnits="userSpaceOnUse" color-interpolation-filters="sRGB">
<feFlood flood-opacity="0" result="BackgroundImageFix"/>
<feColorMatrix in="SourceAlpha" type="matrix" values="0 0 0 0 0 0 0 0 0 0 0 0 0 0 0 0 0 0 127 0" result="hardAlpha"/>
<feOffset dy="6"/>
<feGaussianBlur stdDeviation="5"/>
<feColorMatrix type="matrix" values="0 0 0 0 0.863571 0 0 0 0 0.82875 0 0 0 0 0.975 0 0 0 0.4 0"/>
<feBlend mode="normal" in2="BackgroundImageFix" result="effect1_dropShadow_1_722"/>
<feBlend mode="normal" in="SourceGraphic" in2="effect1_dropShadow_1_722" result="shape"/>
</filter>
</defs>
</svg>
