<svg width="737" height="640" viewBox="0 0 737 640" fill="none" xmlns="http://www.w3.org/2000/svg">
<g filter="url(#filter0_d_1_703)">
<rect x="46" y="305.69" width="274.996" height="197.82" rx="20" transform="rotate(-30 46 305.69)" fill="white"/>
<rect x="46.683" y="305.873" width="273.996" height="196.82" rx="19.5" transform="rotate(-30 46.683 305.873)" stroke="#F1ECFF"/>
</g>
<mask id="mask0_1_703" style="mask-type:alpha" maskUnits="userSpaceOnUse" x="53" y="175" width="324" height="295">
<rect x="46.3313" y="305.498" width="274.996" height="197.82" rx="20" transform="rotate(-30 46.3313 305.498)" fill="white"/>
</mask>
<g mask="url(#mask0_1_703)">
<path d="M99.2417 403.907L102.887 374.804L120.789 364.469L118.109 316.829L131.336 298.395L146.838 282.247L181.56 299.39L193.748 279.157L200.938 248.613L233.905 264.37L237.459 227.528L278.415 255.468L296.836 246.032L310.78 227.185L343.227 242.042L367.56 241.19" stroke="#7951F9" stroke-width="2"/>
<path d="M92.5802 399.95L101.329 372.105L125.465 372.566L133.693 343.822L140.687 314.591L167.617 318.238L164.417 269.698L190.112 272.859L227.951 295.401L244.814 283.265L258.238 263.518L276.856 252.769L302.551 255.929L330 260.476L348.942 251.94L367.56 241.19" stroke="#FB4C5C" stroke-width="2"/>
<g filter="url(#filter1_d_1_703)">
<path d="M221.34 247.388C220.236 245.475 220.891 243.029 222.804 241.924L255.713 222.924C257.627 221.819 260.073 222.475 261.178 224.388L270.378 240.323C271.482 242.236 270.827 244.682 268.913 245.787L258.15 252.001L255.759 261.003L246.768 258.573L236.004 264.787C234.091 265.892 231.645 265.236 230.54 263.323L221.34 247.388Z" fill="#F7F4FD"/>
<path d="M246.898 258.09L246.698 258.036L246.518 258.14L235.754 264.354C234.08 265.321 231.94 264.747 230.973 263.073L221.773 247.138C220.807 245.464 221.38 243.323 223.054 242.357L255.963 223.357C257.637 222.39 259.778 222.964 260.745 224.638L269.945 240.573C270.911 242.247 270.337 244.388 268.663 245.354L257.9 251.568L257.72 251.672L257.667 251.873L255.405 260.389L246.898 258.09Z" stroke="#E8E0FF"/>
</g>
<path d="M243.612 248.132C243.92 248.665 243.978 249.237 243.785 249.847C243.588 250.45 243.107 251.001 242.341 251.498L243.031 252.694L242.511 252.994L241.827 251.809C241.306 252.073 240.772 252.252 240.225 252.346C239.682 252.429 239.206 252.412 238.798 252.297L238.757 251.531C239.136 251.626 239.565 251.642 240.045 251.577C240.532 251.508 240.998 251.364 241.443 251.144L239.865 248.411C239.319 248.569 238.849 248.674 238.454 248.726C238.056 248.772 237.675 248.728 237.312 248.596C236.952 248.453 236.648 248.166 236.4 247.737C236.092 247.203 236.028 246.644 236.208 246.06C236.384 245.469 236.835 244.922 237.561 244.42L236.871 243.225L237.391 242.925L238.075 244.109C238.478 243.895 238.897 243.741 239.332 243.647C239.77 243.542 240.179 243.505 240.557 243.536L240.651 244.299C240.263 244.283 239.88 244.315 239.501 244.395C239.122 244.475 238.773 244.598 238.453 244.764L240.043 247.518C240.628 247.347 241.121 247.233 241.523 247.177C241.92 247.113 242.306 247.149 242.68 247.285C243.053 247.42 243.364 247.702 243.612 248.132ZM237.147 247.278C237.355 247.638 237.645 247.836 238.016 247.871C238.394 247.902 238.871 247.839 239.445 247.683L237.945 245.085C237.457 245.423 237.151 245.789 237.028 246.183C236.907 246.567 236.947 246.932 237.147 247.278ZM241.963 250.844C242.486 250.486 242.821 250.113 242.966 249.724C243.111 249.336 243.081 248.965 242.877 248.611C242.661 248.237 242.357 248.039 241.965 248.016C241.573 247.993 241.073 248.069 240.463 248.246L241.963 250.844ZM250.683 245.726L251.067 246.391L245.965 249.337L245.659 248.807L246.973 244.099C247.138 243.505 247.208 243.035 247.184 242.689C247.162 242.332 247.072 242.014 246.912 241.737C246.664 241.308 246.323 241.061 245.889 240.998C245.458 240.923 244.969 241.044 244.421 241.36C243.569 241.852 243.064 242.504 242.904 243.317L242.11 243.165C242.203 242.669 242.415 242.204 242.747 241.772C243.087 241.336 243.534 240.958 244.088 240.638C244.829 240.21 245.517 240.049 246.15 240.154C246.787 240.248 247.281 240.601 247.633 241.21C247.849 241.584 247.974 241.993 248.007 242.435C248.041 242.877 247.956 243.458 247.752 244.176L246.682 248.036L250.683 245.726ZM251.787 240.253C252.84 239.645 253.716 239.393 254.414 239.498C255.115 239.593 255.661 239.979 256.053 240.658C256.297 241.081 256.415 241.516 256.406 241.965C256.404 242.409 256.261 242.843 255.978 243.265C255.691 243.68 255.261 244.053 254.685 244.385C254.166 244.685 253.622 244.888 253.055 244.994C252.491 245.089 251.985 245.076 251.537 244.956L251.559 244.154C251.945 244.263 252.382 244.283 252.869 244.215C253.352 244.139 253.822 243.969 254.279 243.705C254.882 243.357 255.268 242.954 255.438 242.496C255.614 242.034 255.572 241.578 255.312 241.127C255.024 240.628 254.619 240.359 254.097 240.318C253.582 240.274 252.885 240.506 252.005 241.014L250.456 241.908L248.724 238.044L252.705 235.746L253.089 236.411L249.763 238.331L250.852 240.793L251.787 240.253Z" fill="#232D42"/>
<path opacity="0.7" d="M160.014 404.135C160.362 404.738 160.444 405.36 160.26 406.002C160.08 406.633 159.567 407.193 158.721 407.681L157.329 408.485L159.075 411.509L158.129 412.055L153.947 404.811L156.285 403.461C157.103 402.989 157.837 402.829 158.488 402.98C159.145 403.127 159.654 403.512 160.014 404.135ZM158.271 406.901C158.798 406.597 159.12 406.259 159.237 405.886C159.355 405.514 159.291 405.116 159.047 404.693C158.531 403.8 157.761 403.649 156.735 404.241L155.343 405.045L156.879 407.705L158.271 406.901ZM162.685 403.064C162.664 402.642 162.753 402.254 162.954 401.897C163.162 401.537 163.487 401.229 163.931 400.973L164.495 401.95L164.245 402.094C163.185 402.706 162.987 403.587 163.651 404.737L165.439 407.834L164.494 408.38L161.206 402.685L162.151 402.139L162.685 403.064ZM172.143 399.876C172.247 400.056 172.347 400.253 172.442 400.466L167.89 403.094C168.249 403.635 168.693 403.965 169.224 404.084C169.757 404.191 170.273 404.101 170.772 403.813C171.181 403.577 171.466 403.288 171.628 402.945C171.793 402.591 171.839 402.222 171.766 401.84L172.785 401.252C172.948 401.887 172.901 402.51 172.644 403.12C172.383 403.724 171.913 404.221 171.234 404.613C170.693 404.925 170.139 405.084 169.569 405.09C169.006 405.091 168.476 404.94 167.977 404.637C167.475 404.327 167.054 403.877 166.714 403.288C166.374 402.699 166.193 402.115 166.173 401.536C166.152 400.956 166.286 400.427 166.572 399.947C166.862 399.457 167.284 399.051 167.838 398.731C168.378 398.419 168.924 398.261 169.476 398.257C170.028 398.252 170.534 398.394 170.996 398.682C171.461 398.958 171.843 399.357 172.143 399.876ZM171.052 400.243C170.844 399.882 170.587 399.62 170.279 399.456C169.968 399.285 169.636 399.213 169.282 399.241C168.932 399.259 168.591 399.364 168.258 399.556C167.78 399.832 167.46 400.22 167.296 400.721C167.139 401.218 167.193 401.75 167.456 402.319L171.052 400.243ZM177.124 399.924L176.106 394.082L177.115 393.5L178.168 400.485L177.067 401.121L171.544 396.716L172.563 396.128L177.124 399.924ZM178.346 391.556C178.166 391.66 177.977 391.686 177.781 391.633C177.584 391.58 177.434 391.464 177.33 391.284C177.226 391.104 177.2 390.915 177.253 390.718C177.305 390.522 177.422 390.371 177.602 390.267C177.775 390.167 177.957 390.146 178.146 390.202C178.343 390.255 178.494 390.372 178.598 390.552C178.702 390.732 178.727 390.92 178.674 391.117C178.629 391.31 178.519 391.456 178.346 391.556ZM179.337 392.217L182.625 397.912L181.68 398.458L178.392 392.763L179.337 392.217ZM186.654 395.711C186.217 395.963 185.784 396.116 185.353 396.171C184.919 396.218 184.525 396.168 184.172 396.021C183.815 395.867 183.526 395.623 183.306 395.288L184.283 394.724C184.474 394.992 184.74 395.148 185.079 395.192C185.426 395.233 185.793 395.141 186.181 394.917C186.541 394.709 186.779 394.465 186.895 394.186C187.011 393.906 186.999 393.645 186.859 393.403C186.715 393.153 186.498 393.034 186.209 393.044C185.915 393.047 185.502 393.124 184.97 393.274C184.483 393.408 184.073 393.497 183.738 393.542C183.407 393.576 183.081 393.538 182.759 393.429C182.44 393.308 182.174 393.064 181.962 392.697C181.794 392.406 181.727 392.089 181.76 391.747C181.793 391.404 181.929 391.072 182.168 390.749C182.402 390.42 182.724 390.137 183.133 389.901C183.763 389.537 184.365 389.402 184.937 389.497C185.508 389.592 185.968 389.908 186.316 390.446L185.37 390.992C185.178 390.706 184.918 390.537 184.593 390.485C184.274 390.429 183.931 390.507 183.564 390.719C183.224 390.915 182.996 391.144 182.879 391.405C182.762 391.667 182.772 391.915 182.908 392.151C183.016 392.338 183.165 392.46 183.354 392.516C183.547 392.562 183.755 392.571 183.98 392.543C184.207 392.505 184.509 392.436 184.887 392.338C185.359 392.213 185.756 392.132 186.076 392.095C186.393 392.051 186.703 392.084 187.007 392.195C187.318 392.302 187.577 392.526 187.784 392.869C187.964 393.181 188.039 393.511 188.01 393.861C187.981 394.21 187.849 394.55 187.614 394.879C187.383 395.198 187.062 395.475 186.654 395.711ZM188.675 387.865L190.613 391.222C190.773 391.499 190.946 391.662 191.132 391.712C191.313 391.755 191.55 391.692 191.841 391.524L192.537 391.122L192.999 391.923L192.147 392.415C191.62 392.719 191.155 392.825 190.752 392.735C190.349 392.644 189.987 392.322 189.667 391.768L187.729 388.411L186.991 388.837L186.541 388.058L187.279 387.632L186.451 386.197L187.397 385.651L188.225 387.086L189.711 386.228L190.161 387.007L188.675 387.865ZM197.029 389.721C196.496 390.029 195.941 390.187 195.364 390.197C194.795 390.202 194.257 390.055 193.752 389.756C193.249 389.446 192.828 388.996 192.488 388.407C192.152 387.825 191.981 387.24 191.974 386.653C191.97 386.055 192.119 385.512 192.419 385.024C192.716 384.53 193.134 384.127 193.675 383.815C194.215 383.503 194.773 383.342 195.35 383.332C195.922 383.316 196.461 383.457 196.967 383.757C197.479 384.052 197.905 384.494 198.245 385.083C198.585 385.672 198.754 386.268 198.75 386.87C198.75 387.461 198.598 388.006 198.295 388.505C197.991 389.003 197.569 389.409 197.029 389.721ZM196.549 388.889C196.889 388.693 197.161 388.429 197.367 388.098C197.573 387.767 197.674 387.39 197.67 386.967C197.673 386.54 197.543 386.098 197.279 385.641C197.015 385.184 196.701 384.848 196.337 384.633C195.973 384.418 195.601 384.319 195.222 384.335C194.839 384.343 194.478 384.445 194.138 384.641C193.792 384.841 193.519 385.105 193.32 385.433C193.124 385.749 193.031 386.116 193.042 386.535C193.053 386.954 193.19 387.392 193.454 387.849C193.722 388.313 194.032 388.657 194.382 388.879C194.739 389.098 195.106 389.205 195.482 389.201C195.854 389.189 196.21 389.085 196.549 388.889Z" fill="#232D42"/>
<circle cx="143.446" cy="415.706" r="4" transform="rotate(-30 143.446 415.706)" fill="#7951F9"/>
<path d="M172.796 423.431C173.039 423.852 173.159 424.311 173.155 424.809C173.155 425.294 173.015 425.779 172.734 426.264C172.457 426.736 172.048 427.156 171.505 427.523L172.072 428.505L171.296 428.953L170.722 427.959C169.872 428.353 169.081 428.486 168.35 428.358C167.615 428.223 167.033 427.804 166.606 427.102L168.425 426.052C168.81 426.606 169.312 426.785 169.931 426.589L168.594 424.273C167.928 424.464 167.376 424.589 166.936 424.649C166.496 424.709 166.054 424.651 165.608 424.477C165.163 424.303 164.779 423.938 164.457 423.38C164.051 422.677 163.971 421.958 164.215 421.224C164.468 420.486 164.975 419.853 165.738 419.326L165.171 418.344L165.947 417.896L166.514 418.878C167.328 418.495 168.081 418.372 168.775 418.511C169.477 418.644 170.062 419.05 170.529 419.729L168.699 420.786C168.539 420.565 168.337 420.412 168.094 420.327C167.854 420.228 167.596 420.21 167.319 420.273L168.642 422.564C169.337 422.368 169.9 422.242 170.332 422.187C170.767 422.119 171.207 422.172 171.652 422.346C172.093 422.512 172.474 422.874 172.796 423.431ZM166.179 422.273C166.333 422.54 166.539 422.711 166.799 422.788C167.054 422.856 167.366 422.854 167.733 422.782L166.522 420.684C166.255 420.893 166.087 421.135 166.02 421.411C165.953 421.687 166.006 421.974 166.179 422.273ZM170.721 426.165C170.996 425.931 171.162 425.668 171.22 425.376C171.285 425.08 171.239 424.794 171.08 424.519C170.926 424.252 170.718 424.087 170.455 424.023C170.192 423.96 169.872 423.966 169.496 424.043L170.721 426.165ZM176.815 421.047C177.085 421.365 177.389 421.556 177.727 421.619C178.069 421.67 178.434 421.583 178.822 421.359C179.323 421.07 179.568 420.654 179.556 420.111C179.539 419.56 179.247 418.791 178.677 417.805C178.641 418.171 178.495 418.525 178.239 418.866C177.992 419.203 177.674 419.484 177.286 419.708C176.769 420.006 176.239 420.172 175.698 420.204C175.16 420.224 174.648 420.094 174.163 419.813C173.673 419.525 173.253 419.078 172.903 418.472C172.385 417.574 172.241 416.709 172.471 415.876C172.697 415.034 173.27 414.347 174.192 413.815C175.339 413.153 176.36 413.054 177.253 413.519C178.155 413.979 179.033 414.949 179.887 416.428C180.493 417.479 180.897 418.393 181.099 419.171C181.308 419.945 181.291 420.634 181.047 421.238C180.811 421.838 180.314 422.357 179.554 422.795C178.956 423.141 178.381 423.322 177.83 423.338C177.275 423.346 176.776 423.23 176.335 422.989C175.898 422.735 175.532 422.391 175.238 421.957L176.815 421.047ZM176.84 418.122C177.26 417.88 177.517 417.559 177.61 417.16C177.703 416.762 177.624 416.344 177.372 415.908C177.096 415.431 176.755 415.138 176.347 415.028C175.942 414.906 175.522 414.971 175.085 415.223C174.649 415.475 174.38 415.813 174.28 416.237C174.184 416.649 174.264 417.077 174.521 417.521C174.768 417.95 175.092 418.231 175.493 418.366C175.898 418.488 176.347 418.407 176.84 418.122ZM185.01 410.786C184.733 410.494 184.445 410.321 184.145 410.268C183.853 410.21 183.521 410.288 183.149 410.503C182.591 410.825 182.31 411.289 182.304 411.896C182.302 412.49 182.589 413.294 183.164 414.309C183.172 413.874 183.31 413.46 183.579 413.068C183.843 412.667 184.194 412.341 184.63 412.089C185.156 411.785 185.686 411.63 186.221 411.623C186.755 411.616 187.262 411.766 187.74 412.071C188.214 412.369 188.626 412.821 188.976 413.427C189.307 414.001 189.486 414.582 189.513 415.17C189.544 415.745 189.409 416.287 189.109 416.794C188.809 417.301 188.352 417.732 187.738 418.087C186.897 418.572 186.127 418.769 185.427 418.677C184.736 418.58 184.102 418.257 183.525 417.706C182.952 417.142 182.383 416.372 181.818 415.394C180.964 413.914 180.575 412.652 180.65 411.606C180.72 410.553 181.305 409.708 182.405 409.074C183.253 408.584 184.045 408.434 184.78 408.624C185.515 408.814 186.117 409.231 186.586 409.876L185.01 410.786ZM185.047 413.707C184.619 413.954 184.332 414.287 184.185 414.706C184.039 415.124 184.104 415.572 184.379 416.049C184.654 416.526 185.005 416.825 185.43 416.946C185.863 417.062 186.327 416.978 186.82 416.693C187.256 416.441 187.523 416.109 187.619 415.698C187.724 415.282 187.646 414.847 187.384 414.395C187.114 413.926 186.774 413.626 186.364 413.496C185.963 413.361 185.524 413.432 185.047 413.707ZM191.82 413.143C192.223 412.049 192.531 411.154 192.744 410.46C192.953 409.757 193.075 409.083 193.112 408.437C193.148 407.791 193.036 407.241 192.774 406.789C192.536 406.376 192.253 406.109 191.923 405.987C191.594 405.864 191.227 405.92 190.823 406.153C190.419 406.386 190.187 406.703 190.128 407.104C190.063 407.497 190.163 407.93 190.425 408.404L188.776 409.356C188.249 408.367 188.111 407.466 188.363 406.652C188.623 405.833 189.174 405.182 190.015 404.696C190.936 404.164 191.786 404.002 192.563 404.211C193.336 404.411 193.954 404.911 194.416 405.712C194.78 406.342 194.958 407.042 194.95 407.812C194.942 408.582 194.843 409.307 194.654 409.988C194.46 410.66 194.184 411.498 193.826 412.502L197.403 410.437L198.215 411.844L192.225 415.302L191.497 414.041L191.82 413.143ZM200.73 410.666C200.423 410.844 200.115 410.898 199.805 410.828C199.499 410.746 199.265 410.564 199.101 410.281C198.938 409.998 198.9 409.708 198.986 409.41C199.076 409.099 199.275 408.855 199.582 408.678C199.881 408.505 200.184 408.46 200.49 408.542C200.791 408.616 201.023 408.794 201.187 409.077C201.35 409.36 201.391 409.654 201.309 409.96C201.222 410.258 201.029 410.494 200.73 410.666ZM199.531 402.564C199.105 401.733 199.029 400.947 199.302 400.207C199.579 399.454 200.15 398.829 201.015 398.329C201.605 397.989 202.17 397.802 202.712 397.769C203.249 397.729 203.725 397.826 204.141 398.06C204.56 398.282 204.897 398.615 205.154 399.059C205.448 399.568 205.564 400.078 205.503 400.588C205.445 401.084 205.269 401.498 204.975 401.83L205.003 401.878C205.556 401.753 206.069 401.802 206.543 402.024C207.024 402.242 207.433 402.642 207.769 403.224C208.049 403.709 208.185 404.207 208.178 404.717C208.179 405.223 208.025 405.711 207.714 406.181C207.407 406.639 206.95 407.043 206.344 407.393C205.431 407.92 204.554 408.119 203.714 407.99C202.875 407.86 202.179 407.356 201.629 406.478L203.278 405.526C203.523 405.912 203.841 406.155 204.231 406.252C204.625 406.338 205.044 406.252 205.489 405.995C205.901 405.757 206.151 405.462 206.239 405.11C206.33 404.744 206.27 404.38 206.06 404.016C205.78 403.531 205.426 403.272 204.997 403.24C204.569 403.207 204.031 403.377 203.385 403.75L203.033 403.953L202.228 402.559L202.58 402.356C203.727 401.693 204.08 400.978 203.636 400.21C203.436 399.863 203.174 399.653 202.852 399.58C202.538 399.503 202.187 399.576 201.799 399.8C201.419 400.019 201.185 400.295 201.096 400.626C201.011 400.945 201.043 401.271 201.192 401.605L199.531 402.564ZM211.434 401.059C211.704 401.377 212.008 401.568 212.347 401.632C212.689 401.682 213.053 401.595 213.441 401.371C213.942 401.082 214.187 400.666 214.176 400.123C214.159 399.572 213.866 398.804 213.297 397.817C213.26 398.183 213.114 398.537 212.859 398.879C212.612 399.215 212.294 399.496 211.906 399.72C211.389 400.019 210.859 400.184 210.317 400.217C209.779 400.236 209.268 400.106 208.782 399.826C208.293 399.537 207.873 399.09 207.523 398.484C207.005 397.587 206.861 396.721 207.091 395.888C207.316 395.047 207.89 394.36 208.811 393.828C209.959 393.165 210.98 393.066 211.873 393.531C212.775 393.991 213.652 394.961 214.506 396.44C215.113 397.491 215.517 398.405 215.719 399.184C215.928 399.957 215.911 400.646 215.667 401.25C215.431 401.85 214.933 402.369 214.174 402.808C213.575 403.153 213.001 403.334 212.45 403.35C211.894 403.358 211.396 403.242 210.955 403.001C210.517 402.747 210.152 402.403 209.858 401.969L211.434 401.059ZM211.459 398.135C211.88 397.892 212.137 397.571 212.23 397.173C212.323 396.774 212.243 396.356 211.991 395.92C211.716 395.443 211.374 395.15 210.966 395.041C210.562 394.919 210.141 394.984 209.705 395.236C209.268 395.488 209 395.826 208.9 396.25C208.804 396.661 208.884 397.089 209.14 397.534C209.388 397.962 209.712 398.244 210.113 398.379C210.518 398.501 210.966 398.419 211.459 398.135Z" fill="#232D42"/>
<path opacity="0.7" d="M269.33 347.853L265.895 345.887L264.752 346.547L266.462 349.509L265.516 350.055L261.334 342.811L263.672 341.461C264.22 341.145 264.735 340.973 265.217 340.944C265.706 340.911 266.136 341 266.507 341.211C266.878 341.421 267.181 341.731 267.417 342.14C267.705 342.639 267.814 343.163 267.743 343.712C267.679 344.257 267.395 344.758 266.892 345.214L270.463 347.199L269.33 347.853ZM264.314 345.788L265.706 344.984C266.219 344.688 266.532 344.342 266.644 343.944C266.752 343.54 266.685 343.126 266.441 342.704C266.193 342.274 265.872 342.016 265.48 341.928C265.095 341.837 264.642 341.941 264.122 342.241L262.73 343.045L264.314 345.788ZM275.611 340.139C275.715 340.319 275.815 340.515 275.91 340.728L271.358 343.356C271.717 343.897 272.162 344.227 272.692 344.346C273.225 344.454 273.741 344.364 274.24 344.076C274.649 343.84 274.935 343.55 275.097 343.207C275.262 342.853 275.308 342.485 275.235 342.102L276.253 341.514C276.417 342.149 276.37 342.772 276.113 343.383C275.851 343.986 275.381 344.484 274.702 344.876C274.162 345.188 273.607 345.347 273.037 345.352C272.475 345.354 271.944 345.203 271.446 344.899C270.943 344.589 270.522 344.139 270.182 343.55C269.842 342.962 269.662 342.377 269.641 341.798C269.621 341.219 269.754 340.689 270.041 340.21C270.33 339.719 270.752 339.314 271.306 338.994C271.847 338.682 272.393 338.524 272.944 338.519C273.496 338.515 274.003 338.656 274.465 338.944C274.929 339.221 275.311 339.619 275.611 340.139ZM274.521 340.505C274.313 340.145 274.055 339.883 273.748 339.718C273.436 339.547 273.104 339.476 272.751 339.504C272.401 339.521 272.059 339.626 271.727 339.818C271.249 340.094 270.928 340.482 270.764 340.983C270.608 341.48 270.661 342.013 270.925 342.581L274.521 340.505ZM276.967 339.619C276.631 339.037 276.455 338.46 276.438 337.888C276.418 337.308 276.542 336.779 276.811 336.301C277.086 335.818 277.477 335.431 277.983 335.139C278.482 334.851 278.977 334.709 279.468 334.711C279.959 334.714 280.389 334.826 280.757 335.048L280.157 334.009L281.113 333.457L284.401 339.152L283.445 339.704L282.833 338.644C282.838 339.084 282.717 339.523 282.471 339.961C282.228 340.388 281.86 340.743 281.368 341.027C280.863 341.319 280.333 341.458 279.781 341.445C279.228 341.432 278.704 341.268 278.208 340.953C277.713 340.639 277.299 340.194 276.967 339.619ZM281.795 336.846C281.547 336.416 281.244 336.092 280.887 335.873C280.53 335.655 280.154 335.548 279.76 335.554C279.369 335.549 278.997 335.648 278.644 335.852C278.291 336.056 278.016 336.325 277.821 336.66C277.626 336.994 277.534 337.37 277.545 337.789C277.556 338.208 277.685 338.632 277.933 339.061C278.185 339.498 278.492 339.829 278.853 340.055C279.21 340.273 279.584 340.385 279.975 340.39C280.362 340.389 280.733 340.286 281.086 340.082C281.439 339.878 281.713 339.609 281.908 339.274C282.106 338.929 282.2 338.547 282.189 338.129C282.174 337.703 282.043 337.275 281.795 336.846ZM282.851 329.793L287.291 337.483L286.345 338.029L281.905 330.339L282.851 329.793ZM285.916 329.451C285.736 329.555 285.547 329.58 285.351 329.527C285.154 329.475 285.003 329.358 284.899 329.178C284.795 328.998 284.77 328.81 284.823 328.613C284.875 328.416 284.992 328.266 285.172 328.162C285.345 328.062 285.527 328.04 285.716 328.097C285.913 328.15 286.063 328.266 286.167 328.446C286.271 328.626 286.297 328.815 286.244 329.011C286.199 329.204 286.089 329.351 285.916 329.451ZM286.907 330.111L290.195 335.806L289.249 336.352L285.961 330.657L286.907 330.111ZM292.41 333.488L295.205 331.874L295.655 332.654L291.779 334.892L291.329 334.112L291.7 328.37L288.956 329.954L288.512 329.185L292.347 326.971L292.791 327.74L292.41 333.488ZM295.22 329.081C294.884 328.499 294.707 327.922 294.691 327.349C294.671 326.77 294.795 326.241 295.063 325.763C295.339 325.28 295.73 324.893 296.236 324.601C296.734 324.313 297.229 324.17 297.721 324.173C298.212 324.176 298.642 324.288 299.01 324.51L298.41 323.47L299.366 322.918L302.654 328.613L301.698 329.165L301.086 328.105C301.091 328.546 300.97 328.985 300.724 329.423C300.481 329.85 300.113 330.205 299.621 330.489C299.116 330.781 298.586 330.92 298.033 330.907C297.481 330.893 296.957 330.73 296.461 330.415C295.965 330.101 295.552 329.656 295.22 329.081ZM300.048 326.308C299.8 325.878 299.497 325.554 299.14 325.335C298.783 325.116 298.407 325.01 298.013 325.016C297.622 325.01 297.25 325.11 296.897 325.314C296.543 325.518 296.269 325.787 296.074 326.121C295.879 326.456 295.787 326.832 295.798 327.251C295.809 327.669 295.938 328.094 296.186 328.523C296.438 328.96 296.745 329.291 297.106 329.516C297.463 329.735 297.837 329.847 298.228 329.852C298.615 329.85 298.985 329.748 299.339 329.544C299.692 329.34 299.966 329.07 300.161 328.736C300.359 328.391 300.453 328.009 300.442 327.59C300.427 327.165 300.296 326.737 300.048 326.308ZM302.589 324.826C302.253 324.244 302.077 323.667 302.06 323.095C302.04 322.515 302.164 321.986 302.433 321.508C302.709 321.025 303.103 320.636 303.615 320.34C304.059 320.084 304.531 319.95 305.032 319.938C305.529 319.919 305.974 320.018 306.367 320.234L304.627 317.22L305.583 316.668L310.023 324.359L309.067 324.911L308.449 323.84C308.458 324.288 308.343 324.728 308.104 325.162C307.86 325.589 307.493 325.944 307.001 326.228C306.495 326.52 305.963 326.662 305.403 326.652C304.85 326.639 304.326 326.475 303.83 326.16C303.335 325.846 302.921 325.401 302.589 324.826ZM307.417 322.053C307.169 321.623 306.866 321.299 306.509 321.08C306.152 320.862 305.776 320.755 305.383 320.761C304.992 320.756 304.619 320.855 304.266 321.059C303.913 321.263 303.639 321.532 303.444 321.867C303.249 322.201 303.156 322.577 303.167 322.996C303.178 323.415 303.307 323.839 303.555 324.268C303.807 324.705 304.114 325.036 304.475 325.262C304.832 325.48 305.207 325.592 305.598 325.597C305.985 325.596 306.355 325.493 306.708 325.289C307.061 325.085 307.336 324.816 307.531 324.481C307.728 324.136 307.822 323.754 307.811 323.336C307.796 322.91 307.665 322.482 307.417 322.053ZM314.505 321.896C313.972 322.204 313.417 322.362 312.841 322.372C312.271 322.377 311.733 322.23 311.228 321.931C310.726 321.621 310.304 321.171 309.964 320.582C309.628 320 309.457 319.415 309.45 318.828C309.447 318.23 309.595 317.687 309.896 317.199C310.192 316.705 310.611 316.302 311.151 315.99C311.691 315.678 312.25 315.517 312.826 315.507C313.399 315.491 313.938 315.632 314.443 315.932C314.955 316.227 315.382 316.669 315.722 317.258C316.062 317.847 316.23 318.443 316.227 319.045C316.226 319.636 316.075 320.181 315.771 320.68C315.468 321.178 315.046 321.584 314.505 321.896ZM314.025 321.064C314.365 320.868 314.638 320.604 314.844 320.273C315.049 319.942 315.15 319.565 315.147 319.142C315.15 318.715 315.019 318.273 314.755 317.816C314.491 317.359 314.177 317.023 313.813 316.808C313.449 316.593 313.077 316.494 312.698 316.51C312.315 316.518 311.954 316.62 311.615 316.816C311.268 317.016 310.995 317.28 310.797 317.608C310.6 317.924 310.508 318.291 310.519 318.71C310.529 319.129 310.667 319.567 310.931 320.024C311.199 320.488 311.508 320.832 311.858 321.054C312.215 321.273 312.582 321.38 312.958 321.376C313.33 321.364 313.686 321.26 314.025 321.064Z" fill="#232D42"/>
<circle cx="250.833" cy="353.706" r="4" transform="rotate(-30 250.833 353.706)" fill="#DFD5FE"/>
<path d="M279.184 359.699C279.426 360.12 279.546 360.579 279.542 361.076C279.542 361.562 279.402 362.047 279.121 362.532C278.845 363.004 278.435 363.424 277.892 363.791L278.459 364.773L277.683 365.221L277.109 364.227C276.259 364.621 275.469 364.754 274.737 364.626C274.002 364.491 273.42 364.072 272.994 363.37L274.812 362.32C275.197 362.874 275.699 363.053 276.318 362.857L274.981 360.541C274.315 360.732 273.763 360.857 273.323 360.917C272.883 360.976 272.441 360.919 271.996 360.745C271.55 360.571 271.167 360.206 270.845 359.648C270.439 358.945 270.358 358.226 270.602 357.492C270.855 356.754 271.363 356.121 272.125 355.594L271.558 354.612L272.334 354.164L272.901 355.146C273.715 354.763 274.468 354.64 275.162 354.779C275.865 354.912 276.449 355.318 276.917 355.997L275.086 357.054C274.926 356.833 274.725 356.68 274.481 356.594C274.241 356.496 273.983 356.478 273.706 356.541L275.029 358.832C275.724 358.636 276.288 358.51 276.719 358.455C277.154 358.387 277.594 358.44 278.04 358.614C278.48 358.78 278.862 359.142 279.184 359.699ZM272.566 358.541C272.72 358.808 272.927 358.979 273.186 359.056C273.441 359.124 273.753 359.122 274.12 359.05L272.909 356.952C272.642 357.161 272.474 357.403 272.407 357.679C272.34 357.954 272.393 358.242 272.566 358.541ZM277.108 362.433C277.383 362.199 277.549 361.936 277.607 361.644C277.673 361.348 277.626 361.062 277.467 360.787C277.313 360.52 277.105 360.355 276.842 360.291C276.579 360.228 276.259 360.234 275.883 360.311L277.108 362.433ZM283.202 357.315C283.472 357.633 283.776 357.824 284.114 357.887C284.456 357.938 284.821 357.851 285.209 357.627C285.71 357.338 285.955 356.922 285.943 356.379C285.927 355.828 285.634 355.059 285.064 354.073C285.028 354.439 284.882 354.793 284.626 355.134C284.379 355.471 284.061 355.751 283.673 355.975C283.156 356.274 282.627 356.44 282.085 356.472C281.547 356.492 281.035 356.362 280.55 356.081C280.06 355.793 279.64 355.346 279.29 354.74C278.772 353.842 278.628 352.977 278.858 352.144C279.084 351.302 279.657 350.615 280.579 350.083C281.726 349.421 282.747 349.322 283.641 349.787C284.542 350.247 285.42 351.217 286.274 352.696C286.881 353.747 287.285 354.661 287.486 355.439C287.696 356.213 287.678 356.902 287.434 357.506C287.199 358.106 286.701 358.625 285.941 359.063C285.343 359.409 284.768 359.589 284.217 359.606C283.662 359.614 283.163 359.498 282.722 359.257C282.285 359.003 281.919 358.659 281.626 358.225L283.202 357.315ZM283.227 354.39C283.647 354.148 283.904 353.827 283.997 353.428C284.09 353.03 284.011 352.612 283.759 352.176C283.484 351.699 283.142 351.406 282.734 351.296C282.329 351.174 281.909 351.239 281.472 351.491C281.036 351.743 280.768 352.081 280.668 352.505C280.571 352.917 280.651 353.345 280.908 353.789C281.155 354.218 281.479 354.499 281.88 354.634C282.285 354.756 282.734 354.675 283.227 354.39ZM291.397 347.054C291.12 346.762 290.832 346.589 290.532 346.535C290.24 346.478 289.908 346.556 289.536 346.771C288.978 347.093 288.697 347.557 288.691 348.164C288.689 348.758 288.976 349.562 289.551 350.577C289.559 350.142 289.697 349.728 289.966 349.336C290.231 348.935 290.581 348.609 291.018 348.357C291.543 348.053 292.073 347.898 292.608 347.891C293.143 347.884 293.649 348.034 294.128 348.339C294.601 348.637 295.013 349.089 295.363 349.695C295.694 350.269 295.873 350.85 295.9 351.438C295.931 352.013 295.796 352.555 295.496 353.062C295.196 353.569 294.739 354 294.125 354.355C293.284 354.84 292.514 355.037 291.814 354.945C291.123 354.848 290.489 354.525 289.912 353.974C289.339 353.41 288.77 352.64 288.205 351.662C287.351 350.182 286.962 348.92 287.037 347.874C287.108 346.82 287.692 345.976 288.792 345.342C289.64 344.852 290.432 344.702 291.167 344.892C291.902 345.082 292.504 345.499 292.973 346.144L291.397 347.054ZM291.435 349.975C291.006 350.222 290.719 350.555 290.572 350.974C290.426 351.392 290.491 351.84 290.766 352.317C291.041 352.794 291.392 353.093 291.817 353.214C292.251 353.33 292.714 353.245 293.207 352.961C293.643 352.709 293.91 352.377 294.006 351.966C294.111 351.55 294.033 351.115 293.771 350.663C293.501 350.194 293.161 349.894 292.752 349.764C292.35 349.629 291.911 349.7 291.435 349.975ZM298.207 349.411C298.61 348.317 298.918 347.422 299.131 346.728C299.34 346.025 299.462 345.351 299.499 344.705C299.535 344.059 299.423 343.509 299.162 343.057C298.924 342.644 298.64 342.377 298.311 342.255C297.981 342.132 297.615 342.188 297.21 342.421C296.806 342.654 296.574 342.971 296.515 343.372C296.451 343.765 296.55 344.198 296.812 344.672L295.163 345.624C294.636 344.635 294.498 343.734 294.75 342.92C295.011 342.101 295.561 341.449 296.402 340.964C297.323 340.432 298.173 340.27 298.95 340.479C299.723 340.679 300.341 341.179 300.803 341.98C301.167 342.61 301.345 343.31 301.337 344.08C301.329 344.85 301.23 345.575 301.041 346.255C300.847 346.928 300.571 347.766 300.213 348.77L303.79 346.705L304.602 348.112L298.613 351.57L297.885 350.309L298.207 349.411ZM307.117 346.934C306.81 347.111 306.502 347.166 306.193 347.096C305.887 347.014 305.652 346.832 305.489 346.549C305.325 346.266 305.287 345.976 305.374 345.678C305.464 345.367 305.662 345.123 305.969 344.946C306.268 344.773 306.571 344.728 306.877 344.81C307.178 344.884 307.411 345.062 307.574 345.345C307.737 345.628 307.778 345.922 307.696 346.228C307.609 346.526 307.416 346.761 307.117 346.934ZM305.918 338.832C305.492 338.001 305.416 337.215 305.689 336.475C305.966 335.722 306.537 335.096 307.402 334.597C307.992 334.256 308.558 334.07 309.099 334.037C309.636 333.997 310.112 334.094 310.528 334.328C310.947 334.55 311.285 334.883 311.541 335.327C311.835 335.836 311.952 336.346 311.89 336.855C311.832 337.352 311.656 337.766 311.363 338.098L311.391 338.146C311.943 338.021 312.456 338.07 312.93 338.292C313.411 338.51 313.82 338.91 314.156 339.492C314.436 339.977 314.572 340.475 314.565 340.985C314.567 341.491 314.412 341.979 314.101 342.449C313.794 342.907 313.338 343.311 312.731 343.661C311.818 344.188 310.941 344.387 310.102 344.257C309.262 344.128 308.567 343.624 308.016 342.746L309.665 341.794C309.91 342.18 310.228 342.423 310.618 342.52C311.012 342.605 311.431 342.52 311.876 342.263C312.288 342.025 312.538 341.73 312.626 341.378C312.717 341.012 312.657 340.648 312.447 340.284C312.167 339.799 311.813 339.54 311.385 339.508C310.956 339.475 310.418 339.645 309.772 340.018L309.42 340.221L308.615 338.827L308.967 338.624C310.115 337.961 310.467 337.246 310.023 336.478C309.823 336.131 309.561 335.921 309.239 335.848C308.925 335.771 308.574 335.844 308.186 336.068C307.806 336.287 307.572 336.563 307.483 336.894C307.398 337.213 307.43 337.539 307.579 337.873L305.918 338.832ZM317.821 337.327C318.091 337.645 318.396 337.836 318.734 337.899C319.076 337.95 319.441 337.863 319.828 337.639C320.33 337.35 320.574 336.934 320.563 336.391C320.546 335.84 320.253 335.071 319.684 334.085C319.648 334.451 319.502 334.805 319.246 335.147C318.999 335.483 318.681 335.764 318.293 335.988C317.776 336.286 317.246 336.452 316.705 336.485C316.166 336.504 315.655 336.374 315.17 336.094C314.68 335.805 314.26 335.358 313.91 334.752C313.392 333.855 313.248 332.989 313.478 332.156C313.703 331.314 314.277 330.628 315.198 330.096C316.346 329.433 317.367 329.334 318.26 329.799C319.162 330.259 320.04 331.229 320.894 332.708C321.5 333.759 321.904 334.673 322.106 335.452C322.315 336.225 322.298 336.914 322.054 337.518C321.818 338.118 321.321 338.637 320.561 339.076C319.963 339.421 319.388 339.602 318.837 339.618C318.281 339.626 317.783 339.51 317.342 339.269C316.905 339.015 316.539 338.671 316.245 338.237L317.821 337.327ZM317.847 334.403C318.267 334.16 318.524 333.839 318.617 333.441C318.71 333.042 318.631 332.624 318.379 332.188C318.103 331.711 317.762 331.418 317.354 331.309C316.949 331.187 316.528 331.252 316.092 331.504C315.656 331.756 315.387 332.094 315.287 332.518C315.191 332.929 315.271 333.357 315.527 333.802C315.775 334.23 316.099 334.512 316.5 334.647C316.905 334.769 317.354 334.687 317.847 334.403Z" fill="#232D42"/>
</g>
<g filter="url(#filter2_d_1_703)">
<rect x="337" y="200.498" width="274.996" height="197.82" rx="20" transform="rotate(-30 337 200.498)" fill="white"/>
<rect x="337.683" y="200.681" width="273.996" height="196.82" rx="19.5" transform="rotate(-30 337.683 200.681)" stroke="#F1ECFF"/>
</g>
<path d="M429.753 303.888C439.923 298.016 431.306 283.091 441.577 277.161C451.747 271.29 448.457 265.59 458.728 259.66C468.898 253.789 456.805 232.844 467.077 226.914C477.246 221.042 483.396 231.693 493.667 225.763C503.837 219.891 515.23 239.625 525.4 233.753C535.671 227.823 518.231 197.617 528.401 191.745C538.673 185.815 557.86 219.049 568.03 213.178C578.301 207.247 576.06 203.365 586.229 197.493C596.501 191.563 603.452 203.603 613.622 197.731" stroke="#7DF951" stroke-width="2"/>
<path d="M429.753 303.888C439.923 298.016 433.519 286.925 443.791 280.995C453.96 275.123 459.571 284.841 469.843 278.911C480.012 273.04 478.122 269.765 488.393 263.835C498.563 257.963 490.838 244.583 501.109 238.653C511.279 232.781 502.354 217.323 512.524 211.452C522.795 205.522 534.769 226.261 544.939 220.39C555.211 214.46 551.002 207.171 561.172 201.299C571.443 195.369 575.082 201.672 585.252 195.801C595.524 189.87 603.452 203.603 613.622 197.731" stroke="#F25368" stroke-width="2"/>
<path d="M432.718 302.176C433.204 303.018 432.916 303.987 432.228 304.383C431.541 304.78 430.558 304.545 430.072 303.704C429.586 302.862 429.874 301.894 430.562 301.497C431.249 301.1 432.232 301.335 432.718 302.176Z" fill="white" stroke="#81F731" stroke-width="2"/>
<circle cx="442.869" cy="276.109" r="1.5" transform="rotate(-30 442.869 276.109)" fill="white" stroke="#81F731" stroke-width="2"/>
<circle cx="460.33" cy="258.329" r="1.5" transform="rotate(-30 460.33 258.329)" fill="white" stroke="#81F731" stroke-width="2"/>
<circle cx="468.577" cy="225.855" r="1.5" transform="rotate(-30 468.577 225.855)" fill="white" stroke="#81F731" stroke-width="2"/>
<circle cx="495.372" cy="224.241" r="1.5" transform="rotate(-30 495.372 224.241)" fill="white" stroke="#81F731" stroke-width="2"/>
<path d="M528.383 231.548C528.869 232.39 528.581 233.358 527.893 233.755C527.206 234.152 526.223 233.917 525.737 233.076C525.251 232.234 525.539 231.265 526.227 230.868C526.914 230.472 527.897 230.707 528.383 231.548Z" fill="white" stroke="#81F731" stroke-width="2"/>
<circle cx="529.867" cy="190.469" r="1.5" transform="rotate(-30 529.867 190.469)" fill="white" stroke="#81F731" stroke-width="2"/>
<circle cx="569.661" cy="211.372" r="1.5" transform="rotate(-30 569.661 211.372)" fill="white" stroke="#81F731" stroke-width="2"/>
<path d="M589.339 195.585C589.825 196.427 589.537 197.396 588.849 197.792C588.162 198.189 587.179 197.954 586.693 197.113C586.207 196.271 586.495 195.303 587.183 194.906C587.87 194.509 588.853 194.744 589.339 195.585Z" fill="white" stroke="#81F731" stroke-width="2"/>
<path d="M617.134 195.704C617.619 196.545 617.331 197.514 616.644 197.911C615.957 198.308 614.974 198.073 614.488 197.231C614.002 196.39 614.29 195.421 614.977 195.024C615.665 194.627 616.648 194.862 617.134 195.704Z" fill="white" stroke="#7951F9" stroke-width="2"/>
<circle cx="431.288" cy="302.809" r="1.5" transform="rotate(-30 431.288 302.809)" fill="white" stroke="#F25368" stroke-width="2"/>
<circle cx="444.869" cy="279.573" r="1.5" transform="rotate(-30 444.869 279.573)" fill="white" stroke="#F25368" stroke-width="2"/>
<circle cx="471.33" cy="277.382" r="1.5" transform="rotate(-30 471.33 277.382)" fill="white" stroke="#F25368" stroke-width="2"/>
<circle cx="489.577" cy="262.228" r="1.5" transform="rotate(-30 489.577 262.228)" fill="white" stroke="#F25368" stroke-width="2"/>
<circle cx="502.705" cy="236.943" r="1.5" transform="rotate(-30 502.705 236.943)" fill="white" stroke="#F25368" stroke-width="2"/>
<circle cx="513.953" cy="209.665" r="1.5" transform="rotate(-30 513.953 209.665)" fill="white" stroke="#F25368" stroke-width="2"/>
<circle cx="546.2" cy="218.759" r="1.5" transform="rotate(-30 546.2 218.759)" fill="white" stroke="#F25368" stroke-width="2"/>
<circle cx="562.995" cy="199.825" r="1.5" transform="rotate(-30 562.995 199.825)" fill="white" stroke="#F25368" stroke-width="2"/>
<circle cx="586.909" cy="194.486" r="1.5" transform="rotate(-30 586.909 194.486)" fill="white" stroke="#F25368" stroke-width="2"/>
<circle cx="615.703" cy="196.337" r="1.5" transform="rotate(-30 615.703 196.337)" fill="white" stroke="#F25368" stroke-width="2"/>
<g filter="url(#filter3_d_1_703)">
<path d="M411.945 262.307C410.84 260.393 411.496 257.947 413.409 256.843L441.122 240.843C443.035 239.738 445.481 240.393 446.586 242.307L453.386 254.085C454.49 255.998 453.835 258.444 451.922 259.549L443.014 264.692L440.765 272.225L433.117 270.406L424.209 275.549C422.296 276.653 419.849 275.998 418.745 274.085L411.945 262.307Z" fill="#F7F4FD"/>
<path d="M433.232 269.919L433.039 269.873L432.867 269.973L423.959 275.116C422.285 276.082 420.144 275.509 419.178 273.835L412.378 262.057C411.411 260.383 411.985 258.242 413.659 257.276L441.372 241.276C443.046 240.309 445.186 240.883 446.153 242.557L452.953 254.335C453.919 256.009 453.346 258.149 451.672 259.116L442.764 264.259L442.592 264.358L442.535 264.549L440.421 271.629L433.232 269.919Z" stroke="#E8E0FF"/>
</g>
<path d="M429.494 262.035C429.661 262.323 429.745 262.636 429.747 262.974C429.756 263.308 429.671 263.641 429.494 263.975C429.323 264.304 429.059 264.595 428.704 264.846L429.109 265.548L428.546 265.873L428.141 265.171C427.568 265.433 427.031 265.516 426.53 265.42C426.028 265.325 425.641 265.041 425.367 264.567L426.424 263.957C426.571 264.172 426.752 264.318 426.965 264.395C427.176 264.466 427.411 264.453 427.671 264.357L426.571 262.452C426.128 262.577 425.756 262.661 425.457 262.703C425.155 262.739 424.853 262.697 424.554 262.578C424.259 262.455 424.002 262.203 423.782 261.822C423.506 261.343 423.445 260.851 423.6 260.345C423.751 259.835 424.083 259.396 424.596 259.031L424.191 258.33L424.754 258.005L425.159 258.706C425.694 258.459 426.194 258.386 426.66 258.486C427.129 258.577 427.521 258.851 427.838 259.307L426.782 259.917C426.661 259.748 426.5 259.629 426.299 259.561C426.094 259.486 425.876 259.482 425.644 259.546L426.724 261.417C427.164 261.286 427.535 261.202 427.838 261.166C428.137 261.124 428.434 261.165 428.728 261.288C429.019 261.405 429.274 261.654 429.494 262.035ZM424.757 261.19C424.894 261.427 425.07 261.571 425.285 261.624C425.506 261.674 425.77 261.664 426.076 261.595L425.066 259.845C424.834 260.017 424.687 260.222 424.624 260.459C424.566 260.692 424.61 260.936 424.757 261.19ZM428.234 264.032C428.465 263.845 428.606 263.629 428.657 263.384C428.704 263.133 428.661 262.892 428.528 262.662C428.395 262.431 428.219 262.293 428.002 262.25C427.786 262.197 427.525 262.205 427.219 262.274L428.234 264.032ZM432.042 261.06C432.32 260.261 432.529 259.617 432.67 259.127C432.813 258.629 432.895 258.15 432.915 257.692C432.935 257.234 432.849 256.838 432.655 256.503C432.455 256.156 432.215 255.933 431.934 255.834C431.659 255.731 431.346 255.781 430.994 255.984C430.653 256.181 430.451 256.444 430.387 256.773C430.325 257.094 430.394 257.439 430.592 257.809L429.64 258.359C429.277 257.691 429.183 257.075 429.359 256.512C429.536 255.94 429.917 255.486 430.5 255.149C431.129 254.786 431.72 254.676 432.272 254.819C432.83 254.959 433.276 255.317 433.609 255.894C433.849 256.31 433.974 256.773 433.984 257.283C433.996 257.784 433.943 258.273 433.825 258.749C433.71 259.216 433.542 259.778 433.322 260.437L433.132 261.008L435.877 259.423L436.352 260.246L432.143 262.676L431.728 261.957L432.042 261.06ZM438.531 251.817L435.63 253.492L436.625 255.215C436.653 254.984 436.754 254.745 436.927 254.498C437.106 254.249 437.332 254.045 437.603 253.889C438.088 253.609 438.54 253.486 438.961 253.521C439.387 253.552 439.755 253.689 440.065 253.934C440.381 254.175 440.641 254.471 440.844 254.823C441.091 255.251 441.227 255.68 441.253 256.111C441.282 256.534 441.186 256.935 440.967 257.316C440.754 257.693 440.41 258.018 439.937 258.292C439.308 258.655 438.712 258.791 438.151 258.699C437.59 258.607 437.124 258.326 436.752 257.856L437.714 257.301C437.934 257.535 438.2 257.67 438.513 257.705C438.822 257.734 439.142 257.654 439.471 257.464C439.881 257.227 440.115 256.926 440.174 256.562C440.238 256.193 440.152 255.804 439.915 255.394C439.675 254.979 439.388 254.721 439.054 254.622C438.716 254.516 438.345 254.581 437.941 254.814C437.658 254.977 437.46 255.188 437.347 255.445C437.236 255.694 437.208 255.964 437.261 256.257L436.326 256.797L434.221 253.151L438.031 250.951L438.531 251.817Z" fill="#232D42"/>
<path d="M389.108 212.398C389.482 213.045 389.676 213.741 389.691 214.487C389.717 215.226 389.501 215.959 389.043 216.685C388.597 217.405 387.877 218.052 386.884 218.625L384.857 219.795L387.537 224.437L385.112 225.837L378.132 213.747L382.584 211.177C383.519 210.637 384.409 210.339 385.254 210.282C386.099 210.225 386.846 210.387 387.496 210.766C388.158 211.138 388.695 211.682 389.108 212.398ZM385.65 216.728C386.319 216.341 386.729 215.904 386.879 215.417C387.023 214.919 386.934 214.393 386.614 213.838C385.934 212.661 384.936 212.452 383.62 213.212L381.697 214.322L383.727 217.838L385.65 216.728ZM393.395 210.247C393.413 209.559 393.588 208.927 393.917 208.352C394.259 207.77 394.753 207.292 395.399 206.919L396.869 209.465L396.229 209.835C395.466 210.275 394.992 210.787 394.807 211.372C394.632 211.95 394.802 212.683 395.315 213.572L398.075 218.353L395.65 219.753L390.11 210.157L392.535 208.757L393.395 210.247ZM407.004 213.406C406.08 213.939 405.132 214.217 404.159 214.24C403.18 214.25 402.261 214.004 401.4 213.5C400.551 212.99 399.843 212.244 399.276 211.262C398.71 210.281 398.423 209.291 398.417 208.294C398.423 207.29 398.684 206.369 399.201 205.532C399.712 204.683 400.429 203.992 401.353 203.458C402.277 202.925 403.234 202.65 404.224 202.632C405.208 202.603 406.13 202.84 406.991 203.344C407.863 203.841 408.582 204.581 409.149 205.562C409.716 206.544 409.991 207.54 409.974 208.55C409.968 209.554 409.704 210.484 409.182 211.34C408.665 212.177 407.939 212.866 407.004 213.406ZM405.784 211.293C406.222 211.039 406.572 210.699 406.833 210.271C407.099 209.825 407.224 209.321 407.209 208.761C407.193 208.2 407.008 207.614 406.655 207.002C406.128 206.09 405.483 205.531 404.718 205.326C403.957 205.103 403.231 205.192 402.538 205.592C401.845 205.992 401.406 206.576 401.219 207.346C401.037 208.098 401.209 208.93 401.736 209.842C402.263 210.754 402.894 211.329 403.631 211.565C404.373 211.783 405.091 211.693 405.784 211.293ZM410.284 204.86C409.724 203.891 409.418 202.92 409.366 201.95C409.325 200.973 409.523 200.088 409.959 199.298C410.396 198.507 411.024 197.875 411.844 197.401C412.467 197.041 413.142 196.837 413.868 196.787C414.587 196.726 415.244 196.824 415.839 197.081L413.209 192.526L415.668 191.106L423.068 203.923L420.609 205.343L419.789 203.923C419.762 204.569 419.56 205.194 419.184 205.796C418.808 206.398 418.262 206.905 417.546 207.319C416.738 207.785 415.879 208.004 414.969 207.975C414.06 207.946 413.192 207.67 412.366 207.146C411.545 206.604 410.851 205.842 410.284 204.86ZM417.856 200.535C417.516 199.946 417.111 199.511 416.64 199.228C416.162 198.934 415.664 198.791 415.144 198.798C414.618 198.794 414.13 198.922 413.68 199.182C413.23 199.442 412.877 199.792 412.623 200.231C412.369 200.67 412.243 201.174 412.248 201.741C412.257 202.29 412.428 202.853 412.761 203.43C413.095 204.008 413.503 204.449 413.988 204.755C414.477 205.042 414.979 205.191 415.493 205.202C416.019 205.206 416.501 205.082 416.94 204.828C417.39 204.568 417.748 204.215 418.014 203.769C418.274 203.312 418.399 202.808 418.39 202.259C418.374 201.699 418.196 201.124 417.856 200.535ZM428.955 187.73L434.495 197.326L432.053 198.736L431.353 197.523C431.281 198.119 431.061 198.685 430.693 199.22C430.33 199.738 429.854 200.167 429.265 200.507C428.515 200.94 427.761 201.168 427.003 201.189C426.239 201.199 425.513 200.995 424.825 200.576C424.142 200.139 423.553 199.494 423.06 198.639L419.81 193.01L422.235 191.61L425.285 196.893C425.725 197.655 426.255 198.134 426.876 198.329C427.491 198.514 428.127 198.416 428.785 198.036C429.455 197.649 429.864 197.144 430.011 196.519C430.153 195.884 430.003 195.185 429.563 194.423L426.513 189.14L428.955 187.73ZM435.321 186.711L438.001 191.352C438.188 191.676 438.399 191.869 438.636 191.933C438.878 191.978 439.183 191.894 439.553 191.68L440.679 191.03L441.859 193.074L440.335 193.954C438.291 195.134 436.695 194.731 435.549 192.745L432.879 188.121L431.736 188.781L430.586 186.789L431.729 186.129L430.359 183.756L432.801 182.346L434.171 184.719L436.319 183.479L437.469 185.471L435.321 186.711ZM447.954 189.763C447.03 190.296 446.082 190.574 445.11 190.597C444.131 190.608 443.211 190.361 442.35 189.858C441.501 189.347 440.793 188.601 440.227 187.619C439.66 186.638 439.374 185.649 439.367 184.651C439.373 183.648 439.634 182.727 440.151 181.889C440.662 181.04 441.379 180.349 442.303 179.816C443.227 179.282 444.184 179.007 445.174 178.989C446.158 178.96 447.081 179.198 447.941 179.701C448.813 180.199 449.533 180.938 450.099 181.919C450.666 182.901 450.941 183.897 450.924 184.908C450.918 185.911 450.655 186.841 450.132 187.697C449.615 188.534 448.889 189.223 447.954 189.763ZM446.734 187.65C447.172 187.397 447.522 187.056 447.783 186.628C448.049 186.182 448.174 185.679 448.159 185.118C448.143 184.558 447.958 183.971 447.605 183.359C447.078 182.447 446.433 181.889 445.668 181.684C444.908 181.461 444.181 181.549 443.488 181.949C442.795 182.349 442.356 182.934 442.169 183.704C441.987 184.455 442.159 185.287 442.686 186.199C443.213 187.112 443.845 187.686 444.582 187.923C445.324 188.141 446.041 188.05 446.734 187.65ZM458.41 183.726C457.625 184.18 456.84 184.448 456.057 184.531C455.267 184.602 454.547 184.502 453.897 184.23C453.259 183.952 452.753 183.528 452.378 182.959L454.821 181.549C455.08 181.892 455.436 182.095 455.888 182.157C456.351 182.213 456.819 182.104 457.293 181.831C457.755 181.564 458.059 181.265 458.207 180.934C458.365 180.596 458.362 180.282 458.195 179.994C458.015 179.682 457.72 179.544 457.31 179.581C456.905 179.599 456.303 179.716 455.503 179.931C454.687 180.171 453.995 180.332 453.426 180.414C452.869 180.49 452.313 180.433 451.759 180.246C451.215 180.051 450.757 179.631 450.384 178.984C450.077 178.453 449.947 177.881 449.994 177.269C450.052 176.65 450.291 176.051 450.71 175.47C451.141 174.883 451.743 174.366 452.517 173.919C453.66 173.259 454.739 173.021 455.753 173.205C456.761 173.377 457.58 173.929 458.209 174.859L455.888 176.199C455.634 175.837 455.299 175.631 454.883 175.578C454.473 175.507 454.031 175.608 453.558 175.881C453.119 176.135 452.825 176.412 452.676 176.714C452.538 177.009 452.553 177.301 452.719 177.589C452.906 177.913 453.211 178.068 453.634 178.054C454.051 178.029 454.65 177.907 455.431 177.687C456.224 177.46 456.899 177.309 457.456 177.233C458.013 177.158 458.566 177.224 459.116 177.429C459.671 177.617 460.138 178.025 460.516 178.654C460.836 179.208 460.967 179.794 460.908 180.413C460.861 181.025 460.623 181.625 460.192 182.212C459.766 182.782 459.172 183.286 458.41 183.726Z" fill="#232D42"/>
<rect opacity="0.2" x="536.012" y="116.198" width="31" height="31" rx="3.5" transform="rotate(-30 536.012 116.198)" stroke="#232D42"/>
<path fill-rule="evenodd" clip-rule="evenodd" d="M550.323 121.985C549.771 121.028 550.098 119.805 551.055 119.253L557.983 115.253C558.94 114.7 560.163 115.028 560.715 115.985L564.715 122.913C565.268 123.869 564.94 125.093 563.983 125.645L557.055 129.645C556.098 130.197 554.875 129.869 554.323 128.913L550.323 121.985Z" stroke="#232D42" stroke-width="2" stroke-linecap="round" stroke-linejoin="round"/>
<path d="M556.162 114.765L557.495 117.074" stroke="#232D42" stroke-width="2" stroke-linecap="round" stroke-linejoin="round"/>
<path d="M551.543 117.431L552.876 119.741" stroke="#232D42" stroke-width="2" stroke-linecap="round" stroke-linejoin="round"/>
<path d="M551.323 123.717L561.715 117.717" stroke="#232D42" stroke-width="2" stroke-linecap="round" stroke-linejoin="round"/>
<path opacity="0.5" d="M531.026 285.966L534.511 292.002L533.723 292.457L530.238 286.421L531.026 285.966ZM534.797 286.375L536.412 289.173C536.545 289.404 536.689 289.54 536.844 289.581C536.995 289.617 537.192 289.565 537.435 289.425L538.015 289.09L538.4 289.757L537.69 290.167C537.251 290.42 536.864 290.509 536.528 290.434C536.192 290.358 535.89 290.089 535.624 289.628L534.009 286.83L533.394 287.185L533.019 286.536L533.634 286.181L532.944 284.986L533.732 284.531L534.422 285.726L535.66 285.011L536.035 285.66L534.797 286.375ZM542.556 283.951C542.643 284.101 542.726 284.264 542.805 284.442L539.012 286.632C539.311 287.083 539.682 287.358 540.124 287.457C540.568 287.547 540.998 287.471 541.414 287.231C541.754 287.035 541.992 286.793 542.127 286.508C542.265 286.213 542.303 285.906 542.242 285.587L543.091 285.097C543.227 285.626 543.188 286.145 542.974 286.654C542.756 287.157 542.365 287.572 541.799 287.898C541.348 288.158 540.886 288.291 540.411 288.295C539.943 288.296 539.5 288.171 539.085 287.918C538.666 287.659 538.315 287.285 538.032 286.794C537.749 286.303 537.598 285.816 537.581 285.333C537.564 284.851 537.675 284.409 537.914 284.01C538.155 283.601 538.507 283.263 538.969 282.997C539.419 282.737 539.874 282.605 540.334 282.601C540.794 282.597 541.216 282.715 541.601 282.955C541.988 283.186 542.306 283.518 542.556 283.951ZM541.647 284.256C541.474 283.956 541.259 283.737 541.003 283.6C540.744 283.458 540.467 283.398 540.173 283.422C539.881 283.436 539.596 283.523 539.319 283.683C538.921 283.913 538.653 284.237 538.517 284.654C538.387 285.068 538.431 285.512 538.651 285.986L541.647 284.256ZM548.335 277.577C548.705 277.364 549.079 277.252 549.457 277.241C549.833 277.225 550.193 277.321 550.537 277.53C550.881 277.74 551.179 278.064 551.433 278.502L553.048 281.3L552.268 281.75L550.718 279.065C550.445 278.592 550.118 278.299 549.738 278.188C549.361 278.067 548.973 278.121 548.574 278.351C548.164 278.588 547.915 278.909 547.826 279.315C547.733 279.715 547.83 280.163 548.117 280.659L549.627 283.275L548.848 283.725L547.298 281.04C547.024 280.567 546.698 280.274 546.317 280.163C545.94 280.042 545.552 280.096 545.154 280.326C544.744 280.563 544.494 280.884 544.405 281.29C544.312 281.69 544.41 282.138 544.696 282.634L546.206 285.25L545.418 285.705L542.678 280.959L543.466 280.504L543.861 281.188C543.874 280.85 543.972 280.539 544.155 280.257C544.344 279.97 544.597 279.736 544.914 279.552C545.313 279.322 545.717 279.208 546.126 279.211C546.535 279.213 546.915 279.344 547.265 279.604C547.205 279.192 547.274 278.806 547.473 278.444C547.673 278.083 547.96 277.794 548.335 277.577ZM557.167 273.61L557.738 275.359L558.933 274.669L559.333 275.361L557.991 276.136L558.619 278.083L557.865 278.518L557.238 276.571L555.419 277.621L556.047 279.568L555.293 280.003L554.666 278.056L553.306 278.841L552.906 278.149L554.413 277.279L553.842 275.53L552.5 276.305L552.1 275.612L553.589 274.752L552.961 272.805L553.715 272.37L554.343 274.317L556.161 273.267L555.534 271.32L556.287 270.885L556.915 272.832L558.118 272.137L558.518 272.83L557.167 273.61ZM556.414 274.045L554.595 275.095L555.166 276.844L556.985 275.794L556.414 274.045ZM561.716 275.452C562.11 274.44 562.406 273.626 562.605 273.011C562.801 272.39 562.921 271.792 562.968 271.219C563.016 270.637 562.926 270.147 562.696 269.748C562.479 269.373 562.217 269.132 561.909 269.025C561.603 268.909 561.248 268.967 560.844 269.201C560.451 269.427 560.217 269.728 560.141 270.103C560.067 270.469 560.14 270.862 560.36 271.282L559.597 271.722C559.247 271.062 559.155 270.449 559.321 269.883C559.487 269.318 559.862 268.867 560.445 268.53C561.04 268.187 561.605 268.08 562.142 268.209C562.684 268.335 563.122 268.686 563.455 269.264C563.732 269.743 563.857 270.294 563.832 270.916C563.809 271.53 563.716 272.115 563.552 272.672C563.385 273.222 563.15 273.889 562.848 274.672L565.827 272.952L566.207 273.61L562.041 276.015L561.716 275.452Z" fill="#232D42"/>
<circle cx="519.263" cy="296.187" r="4" transform="rotate(-30 519.263 296.187)" fill="#F25368"/>
<path opacity="0.5" d="M464.342 324.466L467.827 330.502L467.039 330.957L463.554 324.921L464.342 324.466ZM468.113 324.875L469.728 327.673C469.861 327.904 470.005 328.04 470.16 328.081C470.311 328.117 470.508 328.065 470.751 327.925L471.331 327.59L471.716 328.257L471.006 328.667C470.567 328.92 470.18 329.009 469.844 328.934C469.508 328.858 469.206 328.589 468.94 328.128L467.325 325.33L466.71 325.685L466.335 325.036L466.95 324.681L466.26 323.486L467.048 323.031L467.738 324.226L468.976 323.511L469.351 324.16L468.113 324.875ZM475.872 322.451C475.959 322.601 476.042 322.764 476.121 322.942L472.328 325.132C472.627 325.583 472.998 325.858 473.44 325.957C473.884 326.047 474.314 325.971 474.73 325.731C475.07 325.535 475.308 325.293 475.444 325.008C475.581 324.713 475.619 324.406 475.558 324.087L476.407 323.597C476.543 324.126 476.504 324.645 476.29 325.154C476.072 325.657 475.681 326.072 475.115 326.398C474.664 326.658 474.202 326.791 473.727 326.795C473.259 326.796 472.816 326.671 472.401 326.418C471.982 326.159 471.631 325.785 471.348 325.294C471.065 324.803 470.914 324.316 470.897 323.833C470.88 323.351 470.991 322.909 471.23 322.51C471.471 322.101 471.823 321.763 472.285 321.497C472.735 321.237 473.19 321.105 473.65 321.101C474.11 321.097 474.532 321.215 474.917 321.455C475.304 321.686 475.622 322.018 475.872 322.451ZM474.963 322.756C474.79 322.456 474.575 322.237 474.319 322.1C474.06 321.958 473.783 321.898 473.489 321.922C473.197 321.936 472.912 322.023 472.635 322.183C472.237 322.413 471.969 322.737 471.833 323.154C471.703 323.568 471.747 324.012 471.967 324.486L474.963 322.756ZM481.651 316.077C482.021 315.864 482.395 315.752 482.773 315.741C483.149 315.725 483.509 315.821 483.853 316.03C484.197 316.24 484.495 316.564 484.749 317.002L486.364 319.8L485.584 320.25L484.034 317.565C483.761 317.092 483.434 316.799 483.054 316.688C482.677 316.567 482.289 316.621 481.89 316.851C481.48 317.088 481.231 317.409 481.142 317.815C481.049 318.215 481.146 318.663 481.433 319.159L482.943 321.775L482.164 322.225L480.614 319.54C480.34 319.067 480.014 318.774 479.633 318.663C479.256 318.542 478.868 318.596 478.47 318.826C478.06 319.063 477.81 319.384 477.721 319.79C477.628 320.19 477.726 320.638 478.012 321.134L479.522 323.75L478.734 324.205L475.994 319.459L476.782 319.004L477.177 319.688C477.19 319.35 477.288 319.039 477.471 318.757C477.66 318.47 477.913 318.236 478.23 318.052C478.629 317.822 479.033 317.708 479.442 317.711C479.851 317.713 480.231 317.844 480.581 318.104C480.521 317.692 480.59 317.306 480.789 316.944C480.989 316.583 481.276 316.294 481.651 316.077ZM490.483 312.11L491.054 313.859L492.249 313.169L492.649 313.861L491.307 314.636L491.935 316.583L491.181 317.018L490.554 315.071L488.735 316.121L489.363 318.068L488.609 318.503L487.982 316.556L486.622 317.341L486.222 316.649L487.729 315.779L487.158 314.03L485.816 314.805L485.416 314.112L486.905 313.252L486.277 311.305L487.031 310.87L487.659 312.817L489.477 311.767L488.85 309.82L489.603 309.385L490.231 311.332L491.434 310.637L491.834 311.33L490.483 312.11ZM489.73 312.545L487.911 313.595L488.482 315.344L490.301 314.294L489.73 312.545ZM492.085 309.107L491.67 308.388L493.298 307.448L496.913 313.709L496.116 314.169L492.916 308.627L492.085 309.107Z" fill="#232D42"/>
<circle cx="451.713" cy="335.187" r="4" transform="rotate(-30 451.713 335.187)" fill="#7951F9"/>
<defs>
<filter id="filter0_d_1_703" x="-116.683" y="85.5085" width="582.43" height="554.181" filterUnits="userSpaceOnUse" color-interpolation-filters="sRGB">
<feFlood flood-opacity="0" result="BackgroundImageFix"/>
<feColorMatrix in="SourceAlpha" type="matrix" values="0 0 0 0 0 0 0 0 0 0 0 0 0 0 0 0 0 0 127 0" result="hardAlpha"/>
<feOffset dx="-40" dy="40"/>
<feGaussianBlur stdDeviation="65"/>
<feColorMatrix type="matrix" values="0 0 0 0 0.62862 0 0 0 0 0.557604 0 0 0 0 0.841667 0 0 0 0.18 0"/>
<feBlend mode="normal" in2="BackgroundImageFix" result="effect1_dropShadow_1_703"/>
<feBlend mode="normal" in="SourceGraphic" in2="effect1_dropShadow_1_703" result="shape"/>
</filter>
<filter id="filter1_d_1_703" x="210.804" y="218.387" width="70.1103" height="62.9363" filterUnits="userSpaceOnUse" color-interpolation-filters="sRGB">
<feFlood flood-opacity="0" result="BackgroundImageFix"/>
<feColorMatrix in="SourceAlpha" type="matrix" values="0 0 0 0 0 0 0 0 0 0 0 0 0 0 0 0 0 0 127 0" result="hardAlpha"/>
<feOffset dy="6"/>
<feGaussianBlur stdDeviation="5"/>
<feColorMatrix type="matrix" values="0 0 0 0 0.863571 0 0 0 0 0.82875 0 0 0 0 0.975 0 0 0 0.4 0"/>
<feBlend mode="normal" in2="BackgroundImageFix" result="effect1_dropShadow_1_703"/>
<feBlend mode="normal" in="SourceGraphic" in2="effect1_dropShadow_1_703" result="shape"/>
</filter>
<filter id="filter2_d_1_703" x="154.317" y="0.3172" width="582.43" height="554.181" filterUnits="userSpaceOnUse" color-interpolation-filters="sRGB">
<feFlood flood-opacity="0" result="BackgroundImageFix"/>
<feColorMatrix in="SourceAlpha" type="matrix" values="0 0 0 0 0 0 0 0 0 0 0 0 0 0 0 0 0 0 127 0" result="hardAlpha"/>
<feOffset dx="-60" dy="60"/>
<feGaussianBlur stdDeviation="65"/>
<feColorMatrix type="matrix" values="0 0 0 0 0.62862 0 0 0 0 0.557604 0 0 0 0 0.841667 0 0 0 0.3 0"/>
<feBlend mode="normal" in2="BackgroundImageFix" result="effect1_dropShadow_1_703"/>
<feBlend mode="normal" in="SourceGraphic" in2="effect1_dropShadow_1_703" result="shape"/>
</filter>
<filter id="filter3_d_1_703" x="401.408" y="236.306" width="62.5141" height="55.7793" filterUnits="userSpaceOnUse" color-interpolation-filters="sRGB">
<feFlood flood-opacity="0" result="BackgroundImageFix"/>
<feColorMatrix in="SourceAlpha" type="matrix" values="0 0 0 0 0 0 0 0 0 0 0 0 0 0 0 0 0 0 127 0" result="hardAlpha"/>
<feOffset dy="6"/>
<feGaussianBlur stdDeviation="5"/>
<feColorMatrix type="matrix" values="0 0 0 0 0.863571 0 0 0 0 0.82875 0 0 0 0 0.975 0 0 0 0.4 0"/>
<feBlend mode="normal" in2="BackgroundImageFix" result="effect1_dropShadow_1_703"/>
<feBlend mode="normal" in="SourceGraphic" in2="effect1_dropShadow_1_703" result="shape"/>
</filter>
</defs>
</svg>
