<?xml version="1.0" encoding="iso-8859-1"?>
<!-- Generator: Adobe Illustrator 19.0.0, SVG Export Plug-In . SVG Version: 6.00 Build 0)  -->
<svg version="1.1" id="Layer_1" xmlns="http://www.w3.org/2000/svg" fill="#134ec4" xmlns:xlink="http://www.w3.org/1999/xlink" x="0px" y="0px"
	 viewBox="0 0 512 512" style="enable-background:new 0 0 512 512;" xml:space="preserve">
<g>
	<g>
		<rect x="3.376" width="15.673" height="512"/>
	</g>
</g>
<g>
	<g>
		<path d="M27.409,15.673v15.673h299.674v32.392H27.409v15.673h342.727V15.673H27.409z M354.462,63.739h-11.38V31.347h11.38V63.739z
			"/>
	</g>
</g>
<g>
	<g>
		<path d="M27.409,97.176v15.673h0h227.673v31.347H27.409v15.673h271.673V97.176H27.409z M283.409,144.196h-12.327v-31.347h12.327
			V144.196z"/>
	</g>
</g>
<g>
	<g>
		<path d="M27.409,177.633v15.673h179.673v32.392H27.409v15.674h223.608v-63.739H27.409z M235.343,225.698h-12.262v-32.392h12.262
			V225.698z"/>
	</g>
</g>
<g>
	<g>
		<path d="M27.409,257.045v15.673h139.674v32.392H27.409v15.673h182.857v-63.739H27.409z M194.592,305.11h-11.511v-32.392h11.511
			V305.11z"/>
	</g>
</g>
<g>
	<g>
		<path d="M27.409,336.457v15.673h99.673v32.392H27.409v15.673h144.196v-63.739H27.409z M155.931,384.522h-12.849v-32.392h12.849
			V384.522z"/>
	</g>
</g>
<g>
	<g>
		<path d="M27.409,416.914v15.673h51.673v32.392H27.409v15.673h95.086v-63.739H27.409z M106.821,464.98H95.082v-32.392h11.739
			V464.98z"/>
	</g>
</g>
<g>
	<g>
		<polygon points="463.082,4.917 417.54,50.458 428.624,61.541 454.772,35.393 454.772,248.686 470.445,248.686 470.445,34.446 
			497.541,61.541 508.624,50.458 		"/>
	</g>
</g>
<g>
	<g>
		<path d="M455.245,256c0,8.912-7.251,16.164-16.164,16.164c-8.912,0-16.164-7.252-16.164-16.164h-15.673
			c0,17.555,14.282,31.837,31.837,31.837s31.837-14.282,31.837-31.837H455.245z"/>
	</g>
</g>
<g>
	<g>
		<path d="M391.082,215.804c-17.555,0-31.837,15.119-31.837,31.837h15.673c0-8.359,7.251-16.164,16.164-16.164
			c8.912,0,16.164,7.804,16.164,16.164h15.673C422.919,230.922,408.638,215.804,391.082,215.804z"/>
	</g>
</g>
<g>
	<g>
		<rect x="359.685" y="256" width="15.673" height="256"/>
	</g>
</g>
<g>
</g>
<g>
</g>
<g>
</g>
<g>
</g>
<g>
</g>
<g>
</g>
<g>
</g>
<g>
</g>
<g>
</g>
<g>
</g>
<g>
</g>
<g>
</g>
<g>
</g>
<g>
</g>
<g>
</g>
</svg>
