<svg width="1440" height="592" viewBox="0 0 1440 592" fill="none" xmlns="http://www.w3.org/2000/svg">
<path d="M653.14 52.0203C665.762 27.4594 695.904 17.7807 720.465 30.4023L1998.45 687.144C2023.01 699.766 2032.69 729.908 2020.07 754.469L1546.49 1676.03C1533.87 1700.59 1503.93 1710.37 1479.37 1697.75C1365.5 1639.27 1056.31 1480.44 840.65 1369.51C625.491 1258.84 315.163 1099.43 201.007 1040.79C176.439 1028.17 166.947 998.125 179.571 973.56L653.14 52.0203Z" fill="#F9F7FF"/>
<path d="M273.14 45.0203C285.762 20.4594 315.904 10.7807 340.465 23.4023L1618.45 680.144C1643.01 692.766 1652.69 722.908 1640.07 747.469L1166.49 1669.03C1153.87 1693.59 1123.93 1703.37 1099.37 1690.75C985.503 1632.27 676.31 1473.44 460.65 1362.51C245.491 1251.84 -64.8372 1092.43 -178.993 1033.79C-203.561 1021.17 -213.053 991.125 -200.429 966.56L273.14 45.0203Z" fill="#F9F7FF"/>
</svg>
