<svg width="32" height="33" viewBox="0 0 32 33" fill="none" xmlns="http://www.w3.org/2000/svg">
<path d="M11.9999 13.8333H2.66659C2.31296 13.8333 1.97382 13.6928 1.72378 13.4427C1.47373 13.1927 1.33325 12.8535 1.33325 12.4999V3.16659C1.33325 2.81296 1.47373 2.47382 1.72378 2.22378C1.97382 1.97373 2.31296 1.83325 2.66659 1.83325H11.9999C12.3535 1.83325 12.6927 1.97373 12.9427 2.22378C13.1928 2.47382 13.3333 2.81296 13.3333 3.16659V12.4999C13.3333 12.8535 13.1928 13.1927 12.9427 13.4427C12.6927 13.6928 12.3535 13.8333 11.9999 13.8333Z" fill="#7C3AED"/>
<path d="M11.9999 31.1665H2.66659C2.31296 31.1665 1.97382 31.026 1.72378 30.776C1.47373 30.5259 1.33325 30.1868 1.33325 29.8332V20.4998C1.33325 20.1462 1.47373 19.8071 1.72378 19.557C1.97382 19.307 2.31296 19.1665 2.66659 19.1665H11.9999C12.3535 19.1665 12.6927 19.307 12.9427 19.557C13.1928 19.8071 13.3333 20.1462 13.3333 20.4998V29.8332C13.3333 30.1868 13.1928 30.5259 12.9427 30.776C12.6927 31.026 12.3535 31.1665 11.9999 31.1665Z" fill="#7C3AED"/>
<path d="M17.3333 3.1665H30.6666V5.83317H17.3333V3.1665Z" fill="#EA6CBD"/>
<path d="M30.6666 20.5H17.3333V23.1667H30.6666V20.5Z" fill="#EA6CBD"/>
<path d="M30.6666 27.1665H17.3333V29.8332H30.6666V27.1665Z" fill="#C4B5FD"/>
<path d="M30.6666 9.83325H17.3333V12.4999H30.6666V9.83325Z" fill="#C4B5FD"/>
</svg>
